<mxfile host="app.diagrams.net" agent="Mozilla/5.0 (X11; Linux x86_64) AppleWebKit/537.36 (KHTML, like Gecko) Chrome/123.0.0.0 Safari/537.36" version="24.8.2" pages="2">
  <diagram name="entidad relacion" id="_QeiV1jSamI3YA4JMaZA">
    <mxGraphModel dx="1985" dy="1878" grid="1" gridSize="10" guides="1" tooltips="1" connect="1" arrows="1" fold="1" page="1" pageScale="1" pageWidth="827" pageHeight="1169" math="0" shadow="0">
      <root>
        <mxCell id="0" />
        <mxCell id="1" parent="0" />
        <mxCell id="5m4ShYbzvM7e3JB23fWl-47" style="edgeStyle=none;shape=connector;rounded=0;orthogonalLoop=1;jettySize=auto;html=1;strokeColor=default;align=center;verticalAlign=middle;fontFamily=Helvetica;fontSize=11;fontColor=default;labelBackgroundColor=default;endArrow=none;endFill=0;" edge="1" parent="1" source="5m4ShYbzvM7e3JB23fWl-1" target="5m4ShYbzvM7e3JB23fWl-57">
          <mxGeometry relative="1" as="geometry">
            <mxPoint x="-433.5" y="342.2222222222222" as="targetPoint" />
          </mxGeometry>
        </mxCell>
        <mxCell id="5m4ShYbzvM7e3JB23fWl-121" style="edgeStyle=none;shape=connector;rounded=0;orthogonalLoop=1;jettySize=auto;html=1;strokeColor=default;align=center;verticalAlign=middle;fontFamily=Helvetica;fontSize=11;fontColor=default;labelBackgroundColor=default;endArrow=none;endFill=0;" edge="1" parent="1" source="5m4ShYbzvM7e3JB23fWl-158" target="5m4ShYbzvM7e3JB23fWl-112">
          <mxGeometry relative="1" as="geometry" />
        </mxCell>
        <mxCell id="5m4ShYbzvM7e3JB23fWl-1" value="Post" style="rounded=1;arcSize=10;whiteSpace=wrap;html=1;align=center;" vertex="1" parent="1">
          <mxGeometry x="5.5" y="547" width="100" height="40" as="geometry" />
        </mxCell>
        <mxCell id="5m4ShYbzvM7e3JB23fWl-13" style="edgeStyle=none;shape=connector;rounded=0;orthogonalLoop=1;jettySize=auto;html=1;strokeColor=default;align=center;verticalAlign=middle;fontFamily=Helvetica;fontSize=11;fontColor=default;labelBackgroundColor=default;endArrow=none;endFill=0;" edge="1" parent="1" source="5m4ShYbzvM7e3JB23fWl-2" target="5m4ShYbzvM7e3JB23fWl-1">
          <mxGeometry relative="1" as="geometry" />
        </mxCell>
        <mxCell id="5m4ShYbzvM7e3JB23fWl-16" style="edgeStyle=none;shape=connector;rounded=0;orthogonalLoop=1;jettySize=auto;html=1;strokeColor=default;align=center;verticalAlign=middle;fontFamily=Helvetica;fontSize=11;fontColor=default;labelBackgroundColor=default;endArrow=none;endFill=0;" edge="1" parent="1" source="5m4ShYbzvM7e3JB23fWl-2" target="5m4ShYbzvM7e3JB23fWl-15">
          <mxGeometry relative="1" as="geometry" />
        </mxCell>
        <mxCell id="5m4ShYbzvM7e3JB23fWl-2" value="Attendances" style="shape=associativeEntity;whiteSpace=wrap;html=1;align=center;" vertex="1" parent="1">
          <mxGeometry x="118.5" y="1109" width="140" height="60" as="geometry" />
        </mxCell>
        <mxCell id="5m4ShYbzvM7e3JB23fWl-45" style="edgeStyle=none;shape=connector;rounded=0;orthogonalLoop=1;jettySize=auto;html=1;strokeColor=default;align=center;verticalAlign=middle;fontFamily=Helvetica;fontSize=11;fontColor=default;labelBackgroundColor=default;endArrow=none;endFill=0;" edge="1" parent="1" source="5m4ShYbzvM7e3JB23fWl-3" target="5m4ShYbzvM7e3JB23fWl-57">
          <mxGeometry relative="1" as="geometry">
            <mxPoint x="564.3333333333333" y="1172" as="targetPoint" />
          </mxGeometry>
        </mxCell>
        <mxCell id="5m4ShYbzvM7e3JB23fWl-3" value="Comment" style="ellipse;whiteSpace=wrap;html=1;align=center;" vertex="1" parent="1">
          <mxGeometry x="628.5" y="1064" width="100" height="40" as="geometry" />
        </mxCell>
        <mxCell id="5m4ShYbzvM7e3JB23fWl-6" style="edgeStyle=none;rounded=0;orthogonalLoop=1;jettySize=auto;html=1;endArrow=none;endFill=0;" edge="1" parent="1" source="5m4ShYbzvM7e3JB23fWl-4" target="5m4ShYbzvM7e3JB23fWl-2">
          <mxGeometry relative="1" as="geometry" />
        </mxCell>
        <mxCell id="5m4ShYbzvM7e3JB23fWl-4" value="user_id" style="ellipse;whiteSpace=wrap;html=1;align=center;fontStyle=4;" vertex="1" parent="1">
          <mxGeometry x="193.5" y="1030" width="100" height="40" as="geometry" />
        </mxCell>
        <mxCell id="5m4ShYbzvM7e3JB23fWl-7" style="edgeStyle=none;shape=connector;rounded=0;orthogonalLoop=1;jettySize=auto;html=1;strokeColor=default;align=center;verticalAlign=middle;fontFamily=Helvetica;fontSize=11;fontColor=default;labelBackgroundColor=default;endArrow=none;endFill=0;" edge="1" parent="1" source="5m4ShYbzvM7e3JB23fWl-5" target="5m4ShYbzvM7e3JB23fWl-2">
          <mxGeometry relative="1" as="geometry" />
        </mxCell>
        <mxCell id="5m4ShYbzvM7e3JB23fWl-5" value="post_id" style="ellipse;whiteSpace=wrap;html=1;align=center;fontStyle=4;" vertex="1" parent="1">
          <mxGeometry x="193.5" y="1204" width="100" height="40" as="geometry" />
        </mxCell>
        <mxCell id="5m4ShYbzvM7e3JB23fWl-14" style="edgeStyle=none;shape=connector;rounded=0;orthogonalLoop=1;jettySize=auto;html=1;strokeColor=default;align=center;verticalAlign=middle;fontFamily=Helvetica;fontSize=11;fontColor=default;labelBackgroundColor=default;endArrow=none;endFill=0;" edge="1" parent="1" source="5m4ShYbzvM7e3JB23fWl-8" target="5m4ShYbzvM7e3JB23fWl-1">
          <mxGeometry relative="1" as="geometry" />
        </mxCell>
        <mxCell id="5m4ShYbzvM7e3JB23fWl-8" value="Post_Cat" style="shape=associativeEntity;whiteSpace=wrap;html=1;align=center;" vertex="1" parent="1">
          <mxGeometry x="-554" y="768" width="140" height="60" as="geometry" />
        </mxCell>
        <mxCell id="5m4ShYbzvM7e3JB23fWl-9" style="edgeStyle=none;rounded=0;orthogonalLoop=1;jettySize=auto;html=1;endArrow=none;endFill=0;" edge="1" parent="1" source="5m4ShYbzvM7e3JB23fWl-10" target="5m4ShYbzvM7e3JB23fWl-8">
          <mxGeometry relative="1" as="geometry" />
        </mxCell>
        <mxCell id="5m4ShYbzvM7e3JB23fWl-10" value="category_id" style="ellipse;whiteSpace=wrap;html=1;align=center;fontStyle=4;" vertex="1" parent="1">
          <mxGeometry x="-729.5" y="740" width="100" height="40" as="geometry" />
        </mxCell>
        <mxCell id="5m4ShYbzvM7e3JB23fWl-11" style="edgeStyle=none;shape=connector;rounded=0;orthogonalLoop=1;jettySize=auto;html=1;strokeColor=default;align=center;verticalAlign=middle;fontFamily=Helvetica;fontSize=11;fontColor=default;labelBackgroundColor=default;endArrow=none;endFill=0;" edge="1" parent="1" source="5m4ShYbzvM7e3JB23fWl-12" target="5m4ShYbzvM7e3JB23fWl-8">
          <mxGeometry relative="1" as="geometry" />
        </mxCell>
        <mxCell id="5m4ShYbzvM7e3JB23fWl-12" value="post_id" style="ellipse;whiteSpace=wrap;html=1;align=center;fontStyle=4;" vertex="1" parent="1">
          <mxGeometry x="-724" y="819" width="100" height="40" as="geometry" />
        </mxCell>
        <mxCell id="5m4ShYbzvM7e3JB23fWl-136" style="edgeStyle=none;shape=connector;rounded=0;orthogonalLoop=1;jettySize=auto;html=1;strokeColor=default;align=center;verticalAlign=middle;fontFamily=Helvetica;fontSize=11;fontColor=default;labelBackgroundColor=default;endArrow=none;endFill=0;" edge="1" parent="1" source="5m4ShYbzvM7e3JB23fWl-156" target="5m4ShYbzvM7e3JB23fWl-112">
          <mxGeometry relative="1" as="geometry" />
        </mxCell>
        <mxCell id="5m4ShYbzvM7e3JB23fWl-140" style="edgeStyle=none;shape=connector;rounded=0;orthogonalLoop=1;jettySize=auto;html=1;strokeColor=default;align=center;verticalAlign=middle;fontFamily=Helvetica;fontSize=11;fontColor=default;labelBackgroundColor=default;endArrow=none;endFill=0;" edge="1" parent="1" source="5m4ShYbzvM7e3JB23fWl-15" target="5m4ShYbzvM7e3JB23fWl-59">
          <mxGeometry relative="1" as="geometry" />
        </mxCell>
        <mxCell id="5m4ShYbzvM7e3JB23fWl-15" value="Users" style="rounded=1;arcSize=10;whiteSpace=wrap;html=1;align=center;" vertex="1" parent="1">
          <mxGeometry x="6.5" y="1630" width="100" height="40" as="geometry" />
        </mxCell>
        <mxCell id="5m4ShYbzvM7e3JB23fWl-48" style="edgeStyle=none;shape=connector;rounded=0;orthogonalLoop=1;jettySize=auto;html=1;strokeColor=default;align=center;verticalAlign=middle;fontFamily=Helvetica;fontSize=11;fontColor=default;labelBackgroundColor=default;endArrow=none;endFill=0;" edge="1" parent="1" source="5m4ShYbzvM7e3JB23fWl-17" target="5m4ShYbzvM7e3JB23fWl-1">
          <mxGeometry relative="1" as="geometry" />
        </mxCell>
        <mxCell id="5m4ShYbzvM7e3JB23fWl-17" value="Post_Audience" style="shape=associativeEntity;whiteSpace=wrap;html=1;align=center;" vertex="1" parent="1">
          <mxGeometry x="475.5" y="768" width="140" height="60" as="geometry" />
        </mxCell>
        <mxCell id="5m4ShYbzvM7e3JB23fWl-18" style="edgeStyle=none;rounded=0;orthogonalLoop=1;jettySize=auto;html=1;endArrow=none;endFill=0;" edge="1" parent="1" source="5m4ShYbzvM7e3JB23fWl-19" target="5m4ShYbzvM7e3JB23fWl-17">
          <mxGeometry relative="1" as="geometry" />
        </mxCell>
        <mxCell id="5m4ShYbzvM7e3JB23fWl-19" value="audience_type_id" style="ellipse;whiteSpace=wrap;html=1;align=center;fontStyle=4;" vertex="1" parent="1">
          <mxGeometry x="666.5" y="809" width="100" height="40" as="geometry" />
        </mxCell>
        <mxCell id="5m4ShYbzvM7e3JB23fWl-20" style="edgeStyle=none;shape=connector;rounded=0;orthogonalLoop=1;jettySize=auto;html=1;strokeColor=default;align=center;verticalAlign=middle;fontFamily=Helvetica;fontSize=11;fontColor=default;labelBackgroundColor=default;endArrow=none;endFill=0;" edge="1" parent="1" source="5m4ShYbzvM7e3JB23fWl-21" target="5m4ShYbzvM7e3JB23fWl-17">
          <mxGeometry relative="1" as="geometry" />
        </mxCell>
        <mxCell id="5m4ShYbzvM7e3JB23fWl-21" value="post_id" style="ellipse;whiteSpace=wrap;html=1;align=center;fontStyle=4;" vertex="1" parent="1">
          <mxGeometry x="656.5" y="728" width="100" height="40" as="geometry" />
        </mxCell>
        <mxCell id="5m4ShYbzvM7e3JB23fWl-29" style="edgeStyle=none;shape=connector;rounded=0;orthogonalLoop=1;jettySize=auto;html=1;strokeColor=default;align=center;verticalAlign=middle;fontFamily=Helvetica;fontSize=11;fontColor=default;labelBackgroundColor=default;endArrow=none;endFill=0;" edge="1" parent="1" source="5m4ShYbzvM7e3JB23fWl-22" target="5m4ShYbzvM7e3JB23fWl-8">
          <mxGeometry relative="1" as="geometry" />
        </mxCell>
        <mxCell id="5m4ShYbzvM7e3JB23fWl-22" value="Categories" style="rounded=1;arcSize=10;whiteSpace=wrap;html=1;align=center;" vertex="1" parent="1">
          <mxGeometry x="-534" y="539" width="100" height="40" as="geometry" />
        </mxCell>
        <mxCell id="5m4ShYbzvM7e3JB23fWl-24" style="edgeStyle=none;shape=connector;rounded=0;orthogonalLoop=1;jettySize=auto;html=1;strokeColor=default;align=center;verticalAlign=middle;fontFamily=Helvetica;fontSize=11;fontColor=default;labelBackgroundColor=default;endArrow=none;endFill=0;" edge="1" parent="1" source="5m4ShYbzvM7e3JB23fWl-23" target="5m4ShYbzvM7e3JB23fWl-22">
          <mxGeometry relative="1" as="geometry" />
        </mxCell>
        <mxCell id="5m4ShYbzvM7e3JB23fWl-23" value="category_id" style="ellipse;whiteSpace=wrap;html=1;align=center;fontStyle=4;" vertex="1" parent="1">
          <mxGeometry x="-634" y="447" width="100" height="40" as="geometry" />
        </mxCell>
        <mxCell id="5m4ShYbzvM7e3JB23fWl-27" style="edgeStyle=none;shape=connector;rounded=0;orthogonalLoop=1;jettySize=auto;html=1;strokeColor=default;align=center;verticalAlign=middle;fontFamily=Helvetica;fontSize=11;fontColor=default;labelBackgroundColor=default;endArrow=none;endFill=0;" edge="1" parent="1" source="5m4ShYbzvM7e3JB23fWl-25" target="5m4ShYbzvM7e3JB23fWl-22">
          <mxGeometry relative="1" as="geometry" />
        </mxCell>
        <mxCell id="5m4ShYbzvM7e3JB23fWl-25" value="name" style="ellipse;whiteSpace=wrap;html=1;align=center;" vertex="1" parent="1">
          <mxGeometry x="-534" y="400" width="100" height="40" as="geometry" />
        </mxCell>
        <mxCell id="5m4ShYbzvM7e3JB23fWl-28" style="edgeStyle=none;shape=connector;rounded=0;orthogonalLoop=1;jettySize=auto;html=1;strokeColor=default;align=center;verticalAlign=middle;fontFamily=Helvetica;fontSize=11;fontColor=default;labelBackgroundColor=default;endArrow=none;endFill=0;" edge="1" parent="1" source="5m4ShYbzvM7e3JB23fWl-26" target="5m4ShYbzvM7e3JB23fWl-22">
          <mxGeometry relative="1" as="geometry" />
        </mxCell>
        <mxCell id="5m4ShYbzvM7e3JB23fWl-26" value="description" style="ellipse;whiteSpace=wrap;html=1;align=center;" vertex="1" parent="1">
          <mxGeometry x="-434" y="447" width="100" height="40" as="geometry" />
        </mxCell>
        <mxCell id="5m4ShYbzvM7e3JB23fWl-37" style="edgeStyle=none;shape=connector;rounded=0;orthogonalLoop=1;jettySize=auto;html=1;strokeColor=default;align=center;verticalAlign=middle;fontFamily=Helvetica;fontSize=11;fontColor=default;labelBackgroundColor=default;endArrow=none;endFill=0;" edge="1" parent="1" source="5m4ShYbzvM7e3JB23fWl-30" target="5m4ShYbzvM7e3JB23fWl-17">
          <mxGeometry relative="1" as="geometry" />
        </mxCell>
        <mxCell id="5m4ShYbzvM7e3JB23fWl-30" value="Audience_type" style="rounded=1;arcSize=10;whiteSpace=wrap;html=1;align=center;" vertex="1" parent="1">
          <mxGeometry x="494.5" y="539" width="100" height="40" as="geometry" />
        </mxCell>
        <mxCell id="5m4ShYbzvM7e3JB23fWl-31" style="edgeStyle=none;shape=connector;rounded=0;orthogonalLoop=1;jettySize=auto;html=1;strokeColor=default;align=center;verticalAlign=middle;fontFamily=Helvetica;fontSize=11;fontColor=default;labelBackgroundColor=default;endArrow=none;endFill=0;" edge="1" parent="1" source="5m4ShYbzvM7e3JB23fWl-32" target="5m4ShYbzvM7e3JB23fWl-30">
          <mxGeometry relative="1" as="geometry" />
        </mxCell>
        <mxCell id="5m4ShYbzvM7e3JB23fWl-32" value="audience_type_id" style="ellipse;whiteSpace=wrap;html=1;align=center;fontStyle=4;" vertex="1" parent="1">
          <mxGeometry x="394.5" y="459" width="100" height="40" as="geometry" />
        </mxCell>
        <mxCell id="5m4ShYbzvM7e3JB23fWl-33" style="edgeStyle=none;shape=connector;rounded=0;orthogonalLoop=1;jettySize=auto;html=1;strokeColor=default;align=center;verticalAlign=middle;fontFamily=Helvetica;fontSize=11;fontColor=default;labelBackgroundColor=default;endArrow=none;endFill=0;" edge="1" parent="1" source="5m4ShYbzvM7e3JB23fWl-34" target="5m4ShYbzvM7e3JB23fWl-30">
          <mxGeometry relative="1" as="geometry" />
        </mxCell>
        <mxCell id="5m4ShYbzvM7e3JB23fWl-34" value="name" style="ellipse;whiteSpace=wrap;html=1;align=center;" vertex="1" parent="1">
          <mxGeometry x="494.5" y="409" width="100" height="40" as="geometry" />
        </mxCell>
        <mxCell id="5m4ShYbzvM7e3JB23fWl-35" style="edgeStyle=none;shape=connector;rounded=0;orthogonalLoop=1;jettySize=auto;html=1;strokeColor=default;align=center;verticalAlign=middle;fontFamily=Helvetica;fontSize=11;fontColor=default;labelBackgroundColor=default;endArrow=none;endFill=0;" edge="1" parent="1" source="5m4ShYbzvM7e3JB23fWl-36" target="5m4ShYbzvM7e3JB23fWl-30">
          <mxGeometry relative="1" as="geometry" />
        </mxCell>
        <mxCell id="5m4ShYbzvM7e3JB23fWl-36" value="description" style="ellipse;whiteSpace=wrap;html=1;align=center;" vertex="1" parent="1">
          <mxGeometry x="596.5" y="459" width="100" height="40" as="geometry" />
        </mxCell>
        <mxCell id="5m4ShYbzvM7e3JB23fWl-46" style="edgeStyle=none;shape=connector;rounded=0;orthogonalLoop=1;jettySize=auto;html=1;strokeColor=default;align=center;verticalAlign=middle;fontFamily=Helvetica;fontSize=11;fontColor=default;labelBackgroundColor=default;endArrow=none;endFill=0;" edge="1" parent="1" source="5m4ShYbzvM7e3JB23fWl-57" target="5m4ShYbzvM7e3JB23fWl-15">
          <mxGeometry relative="1" as="geometry">
            <mxPoint x="-437.5" y="320" as="sourcePoint" />
          </mxGeometry>
        </mxCell>
        <mxCell id="5m4ShYbzvM7e3JB23fWl-40" style="edgeStyle=none;shape=connector;rounded=0;orthogonalLoop=1;jettySize=auto;html=1;strokeColor=default;align=center;verticalAlign=middle;fontFamily=Helvetica;fontSize=11;fontColor=default;labelBackgroundColor=default;endArrow=none;endFill=0;" edge="1" parent="1" source="5m4ShYbzvM7e3JB23fWl-39" target="5m4ShYbzvM7e3JB23fWl-57">
          <mxGeometry relative="1" as="geometry">
            <mxPoint x="508.5" y="1143.1764705882351" as="targetPoint" />
          </mxGeometry>
        </mxCell>
        <mxCell id="5m4ShYbzvM7e3JB23fWl-39" value="post_id" style="ellipse;whiteSpace=wrap;html=1;align=center;fontStyle=4;" vertex="1" parent="1">
          <mxGeometry x="498.5" y="1024" width="100" height="40" as="geometry" />
        </mxCell>
        <mxCell id="5m4ShYbzvM7e3JB23fWl-42" style="edgeStyle=none;shape=connector;rounded=0;orthogonalLoop=1;jettySize=auto;html=1;strokeColor=default;align=center;verticalAlign=middle;fontFamily=Helvetica;fontSize=11;fontColor=default;labelBackgroundColor=default;endArrow=none;endFill=0;" edge="1" parent="1" source="5m4ShYbzvM7e3JB23fWl-41" target="5m4ShYbzvM7e3JB23fWl-57">
          <mxGeometry relative="1" as="geometry">
            <mxPoint x="566.1923076923076" y="1132" as="targetPoint" />
          </mxGeometry>
        </mxCell>
        <mxCell id="5m4ShYbzvM7e3JB23fWl-41" value="user_id" style="ellipse;whiteSpace=wrap;html=1;align=center;fontStyle=4;" vertex="1" parent="1">
          <mxGeometry x="658.5" y="1149" width="100" height="40" as="geometry" />
        </mxCell>
        <mxCell id="5m4ShYbzvM7e3JB23fWl-44" style="edgeStyle=none;shape=connector;rounded=0;orthogonalLoop=1;jettySize=auto;html=1;strokeColor=default;align=center;verticalAlign=middle;fontFamily=Helvetica;fontSize=11;fontColor=default;labelBackgroundColor=default;endArrow=none;endFill=0;" edge="1" parent="1" source="5m4ShYbzvM7e3JB23fWl-43" target="5m4ShYbzvM7e3JB23fWl-57">
          <mxGeometry relative="1" as="geometry">
            <mxPoint x="554.5" y="1172" as="targetPoint" />
          </mxGeometry>
        </mxCell>
        <mxCell id="5m4ShYbzvM7e3JB23fWl-43" value="report_type" style="ellipse;whiteSpace=wrap;html=1;align=center;" vertex="1" parent="1">
          <mxGeometry x="578.5" y="1219" width="100" height="40" as="geometry" />
        </mxCell>
        <mxCell id="5m4ShYbzvM7e3JB23fWl-56" style="edgeStyle=none;shape=connector;rounded=0;orthogonalLoop=1;jettySize=auto;html=1;strokeColor=default;align=center;verticalAlign=middle;fontFamily=Helvetica;fontSize=11;fontColor=default;labelBackgroundColor=default;endArrow=none;endFill=0;" edge="1" parent="1" source="5m4ShYbzvM7e3JB23fWl-49" target="5m4ShYbzvM7e3JB23fWl-57">
          <mxGeometry relative="1" as="geometry">
            <mxPoint x="-688.0217391304348" y="238" as="targetPoint" />
          </mxGeometry>
        </mxCell>
        <mxCell id="5m4ShYbzvM7e3JB23fWl-49" value="Report_type" style="rounded=1;arcSize=10;whiteSpace=wrap;html=1;align=center;" vertex="1" parent="1">
          <mxGeometry x="498.5" y="1428" width="100" height="40" as="geometry" />
        </mxCell>
        <mxCell id="5m4ShYbzvM7e3JB23fWl-50" style="edgeStyle=none;shape=connector;rounded=0;orthogonalLoop=1;jettySize=auto;html=1;strokeColor=default;align=center;verticalAlign=middle;fontFamily=Helvetica;fontSize=11;fontColor=default;labelBackgroundColor=default;endArrow=none;endFill=0;" edge="1" parent="1" source="5m4ShYbzvM7e3JB23fWl-51" target="5m4ShYbzvM7e3JB23fWl-49">
          <mxGeometry relative="1" as="geometry" />
        </mxCell>
        <mxCell id="5m4ShYbzvM7e3JB23fWl-51" value="report_type_id" style="ellipse;whiteSpace=wrap;html=1;align=center;fontStyle=4;" vertex="1" parent="1">
          <mxGeometry x="398.5" y="1510" width="100" height="40" as="geometry" />
        </mxCell>
        <mxCell id="5m4ShYbzvM7e3JB23fWl-52" style="edgeStyle=none;shape=connector;rounded=0;orthogonalLoop=1;jettySize=auto;html=1;strokeColor=default;align=center;verticalAlign=middle;fontFamily=Helvetica;fontSize=11;fontColor=default;labelBackgroundColor=default;endArrow=none;endFill=0;" edge="1" parent="1" source="5m4ShYbzvM7e3JB23fWl-53" target="5m4ShYbzvM7e3JB23fWl-49">
          <mxGeometry relative="1" as="geometry" />
        </mxCell>
        <mxCell id="5m4ShYbzvM7e3JB23fWl-53" value="name" style="ellipse;whiteSpace=wrap;html=1;align=center;" vertex="1" parent="1">
          <mxGeometry x="498.5" y="1556" width="100" height="40" as="geometry" />
        </mxCell>
        <mxCell id="5m4ShYbzvM7e3JB23fWl-54" style="edgeStyle=none;shape=connector;rounded=0;orthogonalLoop=1;jettySize=auto;html=1;strokeColor=default;align=center;verticalAlign=middle;fontFamily=Helvetica;fontSize=11;fontColor=default;labelBackgroundColor=default;endArrow=none;endFill=0;" edge="1" parent="1" source="5m4ShYbzvM7e3JB23fWl-55" target="5m4ShYbzvM7e3JB23fWl-49">
          <mxGeometry relative="1" as="geometry" />
        </mxCell>
        <mxCell id="5m4ShYbzvM7e3JB23fWl-55" value="description" style="ellipse;whiteSpace=wrap;html=1;align=center;" vertex="1" parent="1">
          <mxGeometry x="588.5" y="1510" width="100" height="40" as="geometry" />
        </mxCell>
        <mxCell id="5m4ShYbzvM7e3JB23fWl-57" value="Reports" style="shape=associativeEntity;whiteSpace=wrap;html=1;align=center;" vertex="1" parent="1">
          <mxGeometry x="478.5" y="1109" width="140" height="60" as="geometry" />
        </mxCell>
        <mxCell id="5m4ShYbzvM7e3JB23fWl-137" style="edgeStyle=none;shape=connector;rounded=0;orthogonalLoop=1;jettySize=auto;html=1;strokeColor=default;align=center;verticalAlign=middle;fontFamily=Helvetica;fontSize=11;fontColor=default;labelBackgroundColor=default;endArrow=none;endFill=0;" edge="1" parent="1" source="5m4ShYbzvM7e3JB23fWl-59" target="5m4ShYbzvM7e3JB23fWl-1">
          <mxGeometry relative="1" as="geometry" />
        </mxCell>
        <mxCell id="5m4ShYbzvM7e3JB23fWl-59" value="Notifications" style="shape=associativeEntity;whiteSpace=wrap;html=1;align=center;" vertex="1" parent="1">
          <mxGeometry x="-535" y="1109" width="140" height="60" as="geometry" />
        </mxCell>
        <mxCell id="5m4ShYbzvM7e3JB23fWl-61" style="edgeStyle=none;shape=connector;rounded=0;orthogonalLoop=1;jettySize=auto;html=1;strokeColor=default;align=center;verticalAlign=middle;fontFamily=Helvetica;fontSize=11;fontColor=default;labelBackgroundColor=default;endArrow=none;endFill=0;" edge="1" parent="1" source="5m4ShYbzvM7e3JB23fWl-60" target="5m4ShYbzvM7e3JB23fWl-59">
          <mxGeometry relative="1" as="geometry" />
        </mxCell>
        <mxCell id="5m4ShYbzvM7e3JB23fWl-60" value="notification_id" style="ellipse;whiteSpace=wrap;html=1;align=center;fontStyle=4;" vertex="1" parent="1">
          <mxGeometry x="-515" y="954" width="100" height="40" as="geometry" />
        </mxCell>
        <mxCell id="5m4ShYbzvM7e3JB23fWl-63" value="user_id" style="ellipse;whiteSpace=wrap;html=1;align=center;" vertex="1" parent="1">
          <mxGeometry x="-670" y="1220" width="100" height="40" as="geometry" />
        </mxCell>
        <mxCell id="5m4ShYbzvM7e3JB23fWl-65" style="edgeStyle=none;shape=connector;rounded=0;orthogonalLoop=1;jettySize=auto;html=1;strokeColor=default;align=center;verticalAlign=middle;fontFamily=Helvetica;fontSize=11;fontColor=default;labelBackgroundColor=default;endArrow=none;endFill=0;" edge="1" parent="1" source="5m4ShYbzvM7e3JB23fWl-64" target="5m4ShYbzvM7e3JB23fWl-59">
          <mxGeometry relative="1" as="geometry" />
        </mxCell>
        <mxCell id="5m4ShYbzvM7e3JB23fWl-64" value="post_id" style="ellipse;whiteSpace=wrap;html=1;align=center;" vertex="1" parent="1">
          <mxGeometry x="-435" y="994" width="100" height="40" as="geometry" />
        </mxCell>
        <mxCell id="5m4ShYbzvM7e3JB23fWl-66" style="edgeStyle=none;shape=connector;rounded=0;orthogonalLoop=1;jettySize=auto;html=1;strokeColor=default;align=center;verticalAlign=middle;fontFamily=Helvetica;fontSize=11;fontColor=default;labelBackgroundColor=default;endArrow=none;endFill=0;" edge="1" parent="1" source="5m4ShYbzvM7e3JB23fWl-63" target="5m4ShYbzvM7e3JB23fWl-59">
          <mxGeometry relative="1" as="geometry" />
        </mxCell>
        <mxCell id="5m4ShYbzvM7e3JB23fWl-68" style="edgeStyle=none;shape=connector;rounded=0;orthogonalLoop=1;jettySize=auto;html=1;strokeColor=default;align=center;verticalAlign=middle;fontFamily=Helvetica;fontSize=11;fontColor=default;labelBackgroundColor=default;endArrow=none;endFill=0;" edge="1" parent="1" source="5m4ShYbzvM7e3JB23fWl-67" target="5m4ShYbzvM7e3JB23fWl-59">
          <mxGeometry relative="1" as="geometry" />
        </mxCell>
        <mxCell id="5m4ShYbzvM7e3JB23fWl-67" value="title" style="ellipse;whiteSpace=wrap;html=1;align=center;" vertex="1" parent="1">
          <mxGeometry x="-620" y="980" width="100" height="40" as="geometry" />
        </mxCell>
        <mxCell id="5m4ShYbzvM7e3JB23fWl-70" style="edgeStyle=none;shape=connector;rounded=0;orthogonalLoop=1;jettySize=auto;html=1;strokeColor=default;align=center;verticalAlign=middle;fontFamily=Helvetica;fontSize=11;fontColor=default;labelBackgroundColor=default;endArrow=none;endFill=0;" edge="1" parent="1" source="5m4ShYbzvM7e3JB23fWl-69" target="5m4ShYbzvM7e3JB23fWl-59">
          <mxGeometry relative="1" as="geometry">
            <mxPoint x="-385" y="1254" as="targetPoint" />
          </mxGeometry>
        </mxCell>
        <mxCell id="5m4ShYbzvM7e3JB23fWl-69" value="type_id" style="ellipse;whiteSpace=wrap;html=1;align=center;" vertex="1" parent="1">
          <mxGeometry x="-570" y="1260" width="100" height="40" as="geometry" />
        </mxCell>
        <mxCell id="5m4ShYbzvM7e3JB23fWl-74" style="edgeStyle=none;shape=connector;rounded=0;orthogonalLoop=1;jettySize=auto;html=1;strokeColor=default;align=center;verticalAlign=middle;fontFamily=Helvetica;fontSize=11;fontColor=default;labelBackgroundColor=default;endArrow=none;endFill=0;" edge="1" parent="1" source="5m4ShYbzvM7e3JB23fWl-71" target="5m4ShYbzvM7e3JB23fWl-59">
          <mxGeometry relative="1" as="geometry">
            <mxPoint x="-333.3941851460545" y="1158.9720327120976" as="sourcePoint" />
          </mxGeometry>
        </mxCell>
        <mxCell id="5m4ShYbzvM7e3JB23fWl-71" value="date" style="ellipse;whiteSpace=wrap;html=1;align=center;" vertex="1" parent="1">
          <mxGeometry x="-710" y="1109" width="100" height="40" as="geometry" />
        </mxCell>
        <mxCell id="5m4ShYbzvM7e3JB23fWl-73" style="edgeStyle=none;shape=connector;rounded=0;orthogonalLoop=1;jettySize=auto;html=1;strokeColor=default;align=center;verticalAlign=middle;fontFamily=Helvetica;fontSize=11;fontColor=default;labelBackgroundColor=default;endArrow=none;endFill=0;" edge="1" parent="1" source="5m4ShYbzvM7e3JB23fWl-72" target="5m4ShYbzvM7e3JB23fWl-59">
          <mxGeometry relative="1" as="geometry" />
        </mxCell>
        <mxCell id="5m4ShYbzvM7e3JB23fWl-72" value="description" style="ellipse;whiteSpace=wrap;html=1;align=center;" vertex="1" parent="1">
          <mxGeometry x="-680" y="1040" width="100" height="40" as="geometry" />
        </mxCell>
        <mxCell id="5m4ShYbzvM7e3JB23fWl-82" style="edgeStyle=none;shape=connector;rounded=0;orthogonalLoop=1;jettySize=auto;html=1;strokeColor=default;align=center;verticalAlign=middle;fontFamily=Helvetica;fontSize=11;fontColor=default;labelBackgroundColor=default;endArrow=none;endFill=0;" edge="1" parent="1" source="5m4ShYbzvM7e3JB23fWl-75" target="5m4ShYbzvM7e3JB23fWl-59">
          <mxGeometry relative="1" as="geometry" />
        </mxCell>
        <mxCell id="5m4ShYbzvM7e3JB23fWl-75" value="Notif_type" style="rounded=1;arcSize=10;whiteSpace=wrap;html=1;align=center;" vertex="1" parent="1">
          <mxGeometry x="-515" y="1428" width="100" height="40" as="geometry" />
        </mxCell>
        <mxCell id="5m4ShYbzvM7e3JB23fWl-76" style="edgeStyle=none;shape=connector;rounded=0;orthogonalLoop=1;jettySize=auto;html=1;strokeColor=default;align=center;verticalAlign=middle;fontFamily=Helvetica;fontSize=11;fontColor=default;labelBackgroundColor=default;endArrow=none;endFill=0;" edge="1" parent="1" source="5m4ShYbzvM7e3JB23fWl-77" target="5m4ShYbzvM7e3JB23fWl-75">
          <mxGeometry relative="1" as="geometry" />
        </mxCell>
        <mxCell id="5m4ShYbzvM7e3JB23fWl-77" value="notif_type_id" style="ellipse;whiteSpace=wrap;html=1;align=center;fontStyle=4;" vertex="1" parent="1">
          <mxGeometry x="-630" y="1510" width="100" height="40" as="geometry" />
        </mxCell>
        <mxCell id="5m4ShYbzvM7e3JB23fWl-78" style="edgeStyle=none;shape=connector;rounded=0;orthogonalLoop=1;jettySize=auto;html=1;strokeColor=default;align=center;verticalAlign=middle;fontFamily=Helvetica;fontSize=11;fontColor=default;labelBackgroundColor=default;endArrow=none;endFill=0;" edge="1" parent="1" source="5m4ShYbzvM7e3JB23fWl-79" target="5m4ShYbzvM7e3JB23fWl-75">
          <mxGeometry relative="1" as="geometry" />
        </mxCell>
        <mxCell id="5m4ShYbzvM7e3JB23fWl-79" value="name" style="ellipse;whiteSpace=wrap;html=1;align=center;" vertex="1" parent="1">
          <mxGeometry x="-515" y="1556" width="100" height="40" as="geometry" />
        </mxCell>
        <mxCell id="5m4ShYbzvM7e3JB23fWl-80" style="edgeStyle=none;shape=connector;rounded=0;orthogonalLoop=1;jettySize=auto;html=1;strokeColor=default;align=center;verticalAlign=middle;fontFamily=Helvetica;fontSize=11;fontColor=default;labelBackgroundColor=default;endArrow=none;endFill=0;" edge="1" parent="1" source="5m4ShYbzvM7e3JB23fWl-81" target="5m4ShYbzvM7e3JB23fWl-75">
          <mxGeometry relative="1" as="geometry" />
        </mxCell>
        <mxCell id="5m4ShYbzvM7e3JB23fWl-81" value="description" style="ellipse;whiteSpace=wrap;html=1;align=center;" vertex="1" parent="1">
          <mxGeometry x="-415" y="1510" width="100" height="40" as="geometry" />
        </mxCell>
        <mxCell id="5m4ShYbzvM7e3JB23fWl-101" style="edgeStyle=none;shape=connector;rounded=0;orthogonalLoop=1;jettySize=auto;html=1;strokeColor=default;align=center;verticalAlign=middle;fontFamily=Helvetica;fontSize=11;fontColor=default;labelBackgroundColor=default;endArrow=none;endFill=0;" edge="1" parent="1" source="5m4ShYbzvM7e3JB23fWl-84" target="5m4ShYbzvM7e3JB23fWl-1">
          <mxGeometry relative="1" as="geometry" />
        </mxCell>
        <mxCell id="5m4ShYbzvM7e3JB23fWl-84" value="attendances" style="ellipse;whiteSpace=wrap;html=1;align=center;" vertex="1" parent="1">
          <mxGeometry x="-237.5" y="480" width="100" height="40" as="geometry" />
        </mxCell>
        <mxCell id="5m4ShYbzvM7e3JB23fWl-87" style="edgeStyle=none;shape=connector;rounded=0;orthogonalLoop=1;jettySize=auto;html=1;strokeColor=default;align=center;verticalAlign=middle;fontFamily=Helvetica;fontSize=11;fontColor=default;labelBackgroundColor=default;endArrow=none;endFill=0;" edge="1" parent="1" source="5m4ShYbzvM7e3JB23fWl-85" target="5m4ShYbzvM7e3JB23fWl-1">
          <mxGeometry relative="1" as="geometry" />
        </mxCell>
        <mxCell id="5m4ShYbzvM7e3JB23fWl-85" value="post&lt;span style=&quot;background-color: initial;&quot;&gt;_id&lt;/span&gt;" style="ellipse;whiteSpace=wrap;html=1;align=center;fontStyle=4;" vertex="1" parent="1">
          <mxGeometry x="-93.5" y="350" width="100" height="40" as="geometry" />
        </mxCell>
        <mxCell id="5m4ShYbzvM7e3JB23fWl-88" style="edgeStyle=none;shape=connector;rounded=0;orthogonalLoop=1;jettySize=auto;html=1;strokeColor=default;align=center;verticalAlign=middle;fontFamily=Helvetica;fontSize=11;fontColor=default;labelBackgroundColor=default;endArrow=none;endFill=0;" edge="1" parent="1" source="5m4ShYbzvM7e3JB23fWl-86" target="5m4ShYbzvM7e3JB23fWl-1">
          <mxGeometry relative="1" as="geometry" />
        </mxCell>
        <mxCell id="5m4ShYbzvM7e3JB23fWl-86" value="publisher_id" style="ellipse;whiteSpace=wrap;html=1;align=center;" vertex="1" parent="1">
          <mxGeometry x="176.5" y="350" width="100" height="40" as="geometry" />
        </mxCell>
        <mxCell id="5m4ShYbzvM7e3JB23fWl-100" style="edgeStyle=none;shape=connector;rounded=0;orthogonalLoop=1;jettySize=auto;html=1;strokeColor=default;align=center;verticalAlign=middle;fontFamily=Helvetica;fontSize=11;fontColor=default;labelBackgroundColor=default;endArrow=none;endFill=0;" edge="1" parent="1" source="5m4ShYbzvM7e3JB23fWl-89" target="5m4ShYbzvM7e3JB23fWl-1">
          <mxGeometry relative="1" as="geometry" />
        </mxCell>
        <mxCell id="5m4ShYbzvM7e3JB23fWl-89" value="capacity" style="ellipse;whiteSpace=wrap;html=1;align=center;" vertex="1" parent="1">
          <mxGeometry x="-163.5" y="390" width="100" height="40" as="geometry" />
        </mxCell>
        <mxCell id="5m4ShYbzvM7e3JB23fWl-99" style="edgeStyle=none;shape=connector;rounded=0;orthogonalLoop=1;jettySize=auto;html=1;strokeColor=default;align=center;verticalAlign=middle;fontFamily=Helvetica;fontSize=11;fontColor=default;labelBackgroundColor=default;endArrow=none;endFill=0;" edge="1" parent="1" source="5m4ShYbzvM7e3JB23fWl-90" target="5m4ShYbzvM7e3JB23fWl-1">
          <mxGeometry relative="1" as="geometry" />
        </mxCell>
        <mxCell id="5m4ShYbzvM7e3JB23fWl-90" value="end_time" style="ellipse;whiteSpace=wrap;html=1;align=center;" vertex="1" parent="1">
          <mxGeometry x="235.5" y="593" width="100" height="40" as="geometry" />
        </mxCell>
        <mxCell id="5m4ShYbzvM7e3JB23fWl-98" style="edgeStyle=none;shape=connector;rounded=0;orthogonalLoop=1;jettySize=auto;html=1;strokeColor=default;align=center;verticalAlign=middle;fontFamily=Helvetica;fontSize=11;fontColor=default;labelBackgroundColor=default;endArrow=none;endFill=0;" edge="1" parent="1" source="5m4ShYbzvM7e3JB23fWl-91" target="5m4ShYbzvM7e3JB23fWl-1">
          <mxGeometry relative="1" as="geometry" />
        </mxCell>
        <mxCell id="5m4ShYbzvM7e3JB23fWl-91" value="end_date" style="ellipse;whiteSpace=wrap;html=1;align=center;" vertex="1" parent="1">
          <mxGeometry x="235.5" y="543" width="100" height="40" as="geometry" />
        </mxCell>
        <mxCell id="5m4ShYbzvM7e3JB23fWl-97" style="edgeStyle=none;shape=connector;rounded=0;orthogonalLoop=1;jettySize=auto;html=1;strokeColor=default;align=center;verticalAlign=middle;fontFamily=Helvetica;fontSize=11;fontColor=default;labelBackgroundColor=default;endArrow=none;endFill=0;" edge="1" parent="1" source="5m4ShYbzvM7e3JB23fWl-92" target="5m4ShYbzvM7e3JB23fWl-1">
          <mxGeometry relative="1" as="geometry" />
        </mxCell>
        <mxCell id="5m4ShYbzvM7e3JB23fWl-92" value="start_time" style="ellipse;whiteSpace=wrap;html=1;align=center;" vertex="1" parent="1">
          <mxGeometry x="235.5" y="447" width="100" height="40" as="geometry" />
        </mxCell>
        <mxCell id="5m4ShYbzvM7e3JB23fWl-96" style="edgeStyle=none;shape=connector;rounded=0;orthogonalLoop=1;jettySize=auto;html=1;strokeColor=default;align=center;verticalAlign=middle;fontFamily=Helvetica;fontSize=11;fontColor=default;labelBackgroundColor=default;endArrow=none;endFill=0;" edge="1" parent="1" source="5m4ShYbzvM7e3JB23fWl-93" target="5m4ShYbzvM7e3JB23fWl-1">
          <mxGeometry relative="1" as="geometry" />
        </mxCell>
        <mxCell id="5m4ShYbzvM7e3JB23fWl-93" value="start_date" style="ellipse;whiteSpace=wrap;html=1;align=center;" vertex="1" parent="1">
          <mxGeometry x="235.5" y="493" width="100" height="40" as="geometry" />
        </mxCell>
        <mxCell id="5m4ShYbzvM7e3JB23fWl-95" style="edgeStyle=none;shape=connector;rounded=0;orthogonalLoop=1;jettySize=auto;html=1;strokeColor=default;align=center;verticalAlign=middle;fontFamily=Helvetica;fontSize=11;fontColor=default;labelBackgroundColor=default;endArrow=none;endFill=0;" edge="1" parent="1" source="5m4ShYbzvM7e3JB23fWl-94" target="5m4ShYbzvM7e3JB23fWl-1">
          <mxGeometry relative="1" as="geometry" />
        </mxCell>
        <mxCell id="5m4ShYbzvM7e3JB23fWl-94" value="title" style="ellipse;whiteSpace=wrap;html=1;align=center;" vertex="1" parent="1">
          <mxGeometry x="-13.5" y="310" width="100" height="40" as="geometry" />
        </mxCell>
        <mxCell id="5m4ShYbzvM7e3JB23fWl-103" style="edgeStyle=none;shape=connector;rounded=0;orthogonalLoop=1;jettySize=auto;html=1;strokeColor=default;align=center;verticalAlign=middle;fontFamily=Helvetica;fontSize=11;fontColor=default;labelBackgroundColor=default;endArrow=none;endFill=0;" edge="1" parent="1" source="5m4ShYbzvM7e3JB23fWl-102" target="5m4ShYbzvM7e3JB23fWl-1">
          <mxGeometry relative="1" as="geometry" />
        </mxCell>
        <mxCell id="5m4ShYbzvM7e3JB23fWl-102" value="reports" style="ellipse;whiteSpace=wrap;html=1;align=center;" vertex="1" parent="1">
          <mxGeometry x="-237.5" y="533" width="100" height="40" as="geometry" />
        </mxCell>
        <mxCell id="5m4ShYbzvM7e3JB23fWl-105" style="edgeStyle=none;shape=connector;rounded=0;orthogonalLoop=1;jettySize=auto;html=1;strokeColor=default;align=center;verticalAlign=middle;fontFamily=Helvetica;fontSize=11;fontColor=default;labelBackgroundColor=default;endArrow=none;endFill=0;" edge="1" parent="1" source="5m4ShYbzvM7e3JB23fWl-104" target="5m4ShYbzvM7e3JB23fWl-1">
          <mxGeometry relative="1" as="geometry" />
        </mxCell>
        <mxCell id="5m4ShYbzvM7e3JB23fWl-104" value="location" style="ellipse;whiteSpace=wrap;html=1;align=center;" vertex="1" parent="1">
          <mxGeometry x="206.5" y="400" width="100" height="40" as="geometry" />
        </mxCell>
        <mxCell id="5m4ShYbzvM7e3JB23fWl-107" style="edgeStyle=none;shape=connector;rounded=0;orthogonalLoop=1;jettySize=auto;html=1;strokeColor=default;align=center;verticalAlign=middle;fontFamily=Helvetica;fontSize=11;fontColor=default;labelBackgroundColor=default;endArrow=none;endFill=0;" edge="1" parent="1" source="5m4ShYbzvM7e3JB23fWl-106" target="5m4ShYbzvM7e3JB23fWl-1">
          <mxGeometry relative="1" as="geometry" />
        </mxCell>
        <mxCell id="5m4ShYbzvM7e3JB23fWl-106" value="description" style="ellipse;whiteSpace=wrap;html=1;align=center;" vertex="1" parent="1">
          <mxGeometry x="89" y="320" width="100" height="40" as="geometry" />
        </mxCell>
        <mxCell id="5m4ShYbzvM7e3JB23fWl-109" style="edgeStyle=none;shape=connector;rounded=0;orthogonalLoop=1;jettySize=auto;html=1;strokeColor=default;align=center;verticalAlign=middle;fontFamily=Helvetica;fontSize=11;fontColor=default;labelBackgroundColor=default;endArrow=none;endFill=0;" edge="1" parent="1" source="5m4ShYbzvM7e3JB23fWl-108" target="5m4ShYbzvM7e3JB23fWl-1">
          <mxGeometry relative="1" as="geometry" />
        </mxCell>
        <mxCell id="5m4ShYbzvM7e3JB23fWl-108" value="url" style="ellipse;whiteSpace=wrap;html=1;align=center;" vertex="1" parent="1">
          <mxGeometry x="-243.5" y="593" width="100" height="40" as="geometry" />
        </mxCell>
        <mxCell id="5m4ShYbzvM7e3JB23fWl-111" style="edgeStyle=none;shape=connector;rounded=0;orthogonalLoop=1;jettySize=auto;html=1;strokeColor=default;align=center;verticalAlign=middle;fontFamily=Helvetica;fontSize=11;fontColor=default;labelBackgroundColor=default;endArrow=none;endFill=0;" edge="1" parent="1" source="5m4ShYbzvM7e3JB23fWl-110" target="5m4ShYbzvM7e3JB23fWl-1">
          <mxGeometry relative="1" as="geometry" />
        </mxCell>
        <mxCell id="5m4ShYbzvM7e3JB23fWl-110" value="state" style="ellipse;whiteSpace=wrap;html=1;align=center;" vertex="1" parent="1">
          <mxGeometry x="-223.5" y="430" width="100" height="40" as="geometry" />
        </mxCell>
        <mxCell id="5m4ShYbzvM7e3JB23fWl-112" value="Publishers" style="rounded=1;arcSize=10;whiteSpace=wrap;html=1;align=center;" vertex="1" parent="1">
          <mxGeometry x="-112.5" y="1114" width="100" height="40" as="geometry" />
        </mxCell>
        <mxCell id="5m4ShYbzvM7e3JB23fWl-114" style="edgeStyle=none;shape=connector;rounded=0;orthogonalLoop=1;jettySize=auto;html=1;strokeColor=default;align=center;verticalAlign=middle;fontFamily=Helvetica;fontSize=11;fontColor=default;labelBackgroundColor=default;endArrow=none;endFill=0;" edge="1" parent="1" source="5m4ShYbzvM7e3JB23fWl-113" target="5m4ShYbzvM7e3JB23fWl-112">
          <mxGeometry relative="1" as="geometry" />
        </mxCell>
        <mxCell id="5m4ShYbzvM7e3JB23fWl-113" value="user_id" style="ellipse;whiteSpace=wrap;html=1;align=center;fontStyle=4;" vertex="1" parent="1">
          <mxGeometry x="-172.5" y="1184" width="100" height="40" as="geometry" />
        </mxCell>
        <mxCell id="5m4ShYbzvM7e3JB23fWl-120" style="edgeStyle=none;shape=connector;rounded=0;orthogonalLoop=1;jettySize=auto;html=1;strokeColor=default;align=center;verticalAlign=middle;fontFamily=Helvetica;fontSize=11;fontColor=default;labelBackgroundColor=default;endArrow=none;endFill=0;" edge="1" parent="1" source="5m4ShYbzvM7e3JB23fWl-117" target="5m4ShYbzvM7e3JB23fWl-112">
          <mxGeometry relative="1" as="geometry" />
        </mxCell>
        <mxCell id="5m4ShYbzvM7e3JB23fWl-117" value="approved_posts" style="ellipse;whiteSpace=wrap;html=1;align=center;" vertex="1" parent="1">
          <mxGeometry x="-185.5" y="1050" width="100" height="40" as="geometry" />
        </mxCell>
        <mxCell id="5m4ShYbzvM7e3JB23fWl-119" style="edgeStyle=none;shape=connector;rounded=0;orthogonalLoop=1;jettySize=auto;html=1;strokeColor=default;align=center;verticalAlign=middle;fontFamily=Helvetica;fontSize=11;fontColor=default;labelBackgroundColor=default;endArrow=none;endFill=0;" edge="1" parent="1" source="5m4ShYbzvM7e3JB23fWl-118" target="5m4ShYbzvM7e3JB23fWl-112">
          <mxGeometry relative="1" as="geometry" />
        </mxCell>
        <mxCell id="5m4ShYbzvM7e3JB23fWl-118" value="state" style="ellipse;whiteSpace=wrap;html=1;align=center;" vertex="1" parent="1">
          <mxGeometry x="-235" y="1114" width="100" height="40" as="geometry" />
        </mxCell>
        <mxCell id="5m4ShYbzvM7e3JB23fWl-123" style="edgeStyle=none;shape=connector;rounded=0;orthogonalLoop=1;jettySize=auto;html=1;strokeColor=default;align=center;verticalAlign=middle;fontFamily=Helvetica;fontSize=11;fontColor=default;labelBackgroundColor=default;endArrow=none;endFill=0;" edge="1" parent="1" source="5m4ShYbzvM7e3JB23fWl-122" target="5m4ShYbzvM7e3JB23fWl-15">
          <mxGeometry relative="1" as="geometry" />
        </mxCell>
        <mxCell id="5m4ShYbzvM7e3JB23fWl-122" value="user_id" style="ellipse;whiteSpace=wrap;html=1;align=center;fontStyle=4;" vertex="1" parent="1">
          <mxGeometry x="189" y="1630" width="100" height="40" as="geometry" />
        </mxCell>
        <mxCell id="5m4ShYbzvM7e3JB23fWl-125" style="edgeStyle=none;shape=connector;rounded=0;orthogonalLoop=1;jettySize=auto;html=1;strokeColor=default;align=center;verticalAlign=middle;fontFamily=Helvetica;fontSize=11;fontColor=default;labelBackgroundColor=default;endArrow=none;endFill=0;" edge="1" parent="1" source="5m4ShYbzvM7e3JB23fWl-124" target="5m4ShYbzvM7e3JB23fWl-15">
          <mxGeometry relative="1" as="geometry" />
        </mxCell>
        <mxCell id="5m4ShYbzvM7e3JB23fWl-124" value="name" style="ellipse;whiteSpace=wrap;html=1;align=center;" vertex="1" parent="1">
          <mxGeometry x="116.5" y="1750" width="100" height="40" as="geometry" />
        </mxCell>
        <mxCell id="5m4ShYbzvM7e3JB23fWl-127" style="edgeStyle=none;shape=connector;rounded=0;orthogonalLoop=1;jettySize=auto;html=1;strokeColor=default;align=center;verticalAlign=middle;fontFamily=Helvetica;fontSize=11;fontColor=default;labelBackgroundColor=default;endArrow=none;endFill=0;" edge="1" parent="1" source="5m4ShYbzvM7e3JB23fWl-126" target="5m4ShYbzvM7e3JB23fWl-15">
          <mxGeometry relative="1" as="geometry" />
        </mxCell>
        <mxCell id="5m4ShYbzvM7e3JB23fWl-126" value="username" style="ellipse;whiteSpace=wrap;html=1;align=center;" vertex="1" parent="1">
          <mxGeometry x="-193.5" y="1630" width="100" height="40" as="geometry" />
        </mxCell>
        <mxCell id="5m4ShYbzvM7e3JB23fWl-129" style="edgeStyle=none;shape=connector;rounded=0;orthogonalLoop=1;jettySize=auto;html=1;strokeColor=default;align=center;verticalAlign=middle;fontFamily=Helvetica;fontSize=11;fontColor=default;labelBackgroundColor=default;endArrow=none;endFill=0;" edge="1" parent="1" source="5m4ShYbzvM7e3JB23fWl-128" target="5m4ShYbzvM7e3JB23fWl-15">
          <mxGeometry relative="1" as="geometry" />
        </mxCell>
        <mxCell id="5m4ShYbzvM7e3JB23fWl-128" value="email" style="ellipse;whiteSpace=wrap;html=1;align=center;" vertex="1" parent="1">
          <mxGeometry x="6.5" y="1770" width="100" height="40" as="geometry" />
        </mxCell>
        <mxCell id="5m4ShYbzvM7e3JB23fWl-131" style="edgeStyle=none;shape=connector;rounded=0;orthogonalLoop=1;jettySize=auto;html=1;strokeColor=default;align=center;verticalAlign=middle;fontFamily=Helvetica;fontSize=11;fontColor=default;labelBackgroundColor=default;endArrow=none;endFill=0;" edge="1" parent="1" source="5m4ShYbzvM7e3JB23fWl-130" target="5m4ShYbzvM7e3JB23fWl-15">
          <mxGeometry relative="1" as="geometry" />
        </mxCell>
        <mxCell id="5m4ShYbzvM7e3JB23fWl-130" value="password" style="ellipse;whiteSpace=wrap;html=1;align=center;" vertex="1" parent="1">
          <mxGeometry x="-113.5" y="1750" width="100" height="40" as="geometry" />
        </mxCell>
        <mxCell id="5m4ShYbzvM7e3JB23fWl-133" style="edgeStyle=none;shape=connector;rounded=0;orthogonalLoop=1;jettySize=auto;html=1;strokeColor=default;align=center;verticalAlign=middle;fontFamily=Helvetica;fontSize=11;fontColor=default;labelBackgroundColor=default;endArrow=none;endFill=0;" edge="1" parent="1" source="5m4ShYbzvM7e3JB23fWl-132" target="5m4ShYbzvM7e3JB23fWl-15">
          <mxGeometry relative="1" as="geometry" />
        </mxCell>
        <mxCell id="5m4ShYbzvM7e3JB23fWl-132" value="type" style="ellipse;whiteSpace=wrap;html=1;align=center;" vertex="1" parent="1">
          <mxGeometry x="-176" y="1688" width="100" height="40" as="geometry" />
        </mxCell>
        <mxCell id="5m4ShYbzvM7e3JB23fWl-135" style="edgeStyle=none;shape=connector;rounded=0;orthogonalLoop=1;jettySize=auto;html=1;strokeColor=default;align=center;verticalAlign=middle;fontFamily=Helvetica;fontSize=11;fontColor=default;labelBackgroundColor=default;endArrow=none;endFill=0;" edge="1" parent="1" source="5m4ShYbzvM7e3JB23fWl-134" target="5m4ShYbzvM7e3JB23fWl-15">
          <mxGeometry relative="1" as="geometry" />
        </mxCell>
        <mxCell id="5m4ShYbzvM7e3JB23fWl-134" value="state" style="ellipse;whiteSpace=wrap;html=1;align=center;" vertex="1" parent="1">
          <mxGeometry x="181.5" y="1688" width="100" height="40" as="geometry" />
        </mxCell>
        <mxCell id="5m4ShYbzvM7e3JB23fWl-146" style="edgeStyle=none;shape=connector;rounded=0;orthogonalLoop=1;jettySize=auto;html=1;strokeColor=default;align=center;verticalAlign=middle;fontFamily=Helvetica;fontSize=11;fontColor=default;labelBackgroundColor=default;endArrow=none;endFill=0;" edge="1" parent="1" source="5m4ShYbzvM7e3JB23fWl-145" target="5m4ShYbzvM7e3JB23fWl-59">
          <mxGeometry relative="1" as="geometry" />
        </mxCell>
        <mxCell id="5m4ShYbzvM7e3JB23fWl-145" value="state" style="ellipse;whiteSpace=wrap;html=1;align=center;" vertex="1" parent="1">
          <mxGeometry x="-730" y="1169" width="100" height="40" as="geometry" />
        </mxCell>
        <mxCell id="5m4ShYbzvM7e3JB23fWl-157" value="" style="edgeStyle=none;shape=connector;rounded=0;orthogonalLoop=1;jettySize=auto;html=1;strokeColor=default;align=center;verticalAlign=middle;fontFamily=Helvetica;fontSize=11;fontColor=default;labelBackgroundColor=default;endArrow=none;endFill=0;" edge="1" parent="1" source="5m4ShYbzvM7e3JB23fWl-15" target="5m4ShYbzvM7e3JB23fWl-156">
          <mxGeometry relative="1" as="geometry">
            <mxPoint x="51.5" y="1630" as="sourcePoint" />
            <mxPoint x="-57.5" y="1154" as="targetPoint" />
          </mxGeometry>
        </mxCell>
        <mxCell id="5m4ShYbzvM7e3JB23fWl-156" value="extends" style="shape=rhombus;perimeter=rhombusPerimeter;whiteSpace=wrap;html=1;align=center;fontFamily=Helvetica;fontSize=11;fontColor=default;labelBackgroundColor=default;" vertex="1" parent="1">
          <mxGeometry x="-93.5" y="1300" width="120" height="60" as="geometry" />
        </mxCell>
        <mxCell id="5m4ShYbzvM7e3JB23fWl-159" value="" style="edgeStyle=none;shape=connector;rounded=0;orthogonalLoop=1;jettySize=auto;html=1;strokeColor=default;align=center;verticalAlign=middle;fontFamily=Helvetica;fontSize=11;fontColor=default;labelBackgroundColor=default;endArrow=none;endFill=0;" edge="1" parent="1" source="5m4ShYbzvM7e3JB23fWl-1" target="5m4ShYbzvM7e3JB23fWl-158">
          <mxGeometry relative="1" as="geometry">
            <mxPoint x="51.5" y="587" as="sourcePoint" />
            <mxPoint x="-58.5" y="1114" as="targetPoint" />
          </mxGeometry>
        </mxCell>
        <mxCell id="5m4ShYbzvM7e3JB23fWl-158" value="publishes" style="shape=rhombus;perimeter=rhombusPerimeter;whiteSpace=wrap;html=1;align=center;fontFamily=Helvetica;fontSize=11;fontColor=default;labelBackgroundColor=default;" vertex="1" parent="1">
          <mxGeometry x="-72.5" y="870" width="120" height="60" as="geometry" />
        </mxCell>
      </root>
    </mxGraphModel>
  </diagram>
  <diagram id="7onfwgObipxawvH0GExd" name="Clases">
    <mxGraphModel dx="3296" dy="2901" grid="1" gridSize="10" guides="1" tooltips="1" connect="1" arrows="1" fold="1" page="1" pageScale="1" pageWidth="827" pageHeight="1169" math="0" shadow="0">
      <root>
        <mxCell id="0" />
        <mxCell id="1" parent="0" />
        <mxCell id="1ccCe6rOJYD6IKxsLuqJ-18" style="edgeStyle=none;shape=connector;rounded=0;orthogonalLoop=1;jettySize=auto;html=1;strokeColor=default;align=center;verticalAlign=middle;fontFamily=Helvetica;fontSize=11;fontColor=default;labelBackgroundColor=default;endArrow=diamondThin;endFill=0;endSize=8;" edge="1" parent="1" source="1ccCe6rOJYD6IKxsLuqJ-9" target="1ccCe6rOJYD6IKxsLuqJ-14">
          <mxGeometry relative="1" as="geometry" />
        </mxCell>
        <mxCell id="1ccCe6rOJYD6IKxsLuqJ-120" style="edgeStyle=none;shape=connector;rounded=0;orthogonalLoop=1;jettySize=auto;html=1;strokeColor=default;align=center;verticalAlign=middle;fontFamily=Helvetica;fontSize=11;fontColor=default;labelBackgroundColor=default;endArrow=diamondThin;endFill=0;endSize=8;" edge="1" parent="1" source="1ccCe6rOJYD6IKxsLuqJ-9" target="1ccCe6rOJYD6IKxsLuqJ-111">
          <mxGeometry relative="1" as="geometry" />
        </mxCell>
        <mxCell id="1ccCe6rOJYD6IKxsLuqJ-124" style="edgeStyle=none;shape=connector;rounded=0;orthogonalLoop=1;jettySize=auto;html=1;strokeColor=default;align=center;verticalAlign=middle;fontFamily=Helvetica;fontSize=11;fontColor=default;labelBackgroundColor=default;endArrow=diamondThin;endFill=1;endSize=8;" edge="1" parent="1" source="1ccCe6rOJYD6IKxsLuqJ-9" target="1ccCe6rOJYD6IKxsLuqJ-56">
          <mxGeometry relative="1" as="geometry" />
        </mxCell>
        <mxCell id="1ccCe6rOJYD6IKxsLuqJ-9" value="Home_ctrl" style="swimlane;fontStyle=1;align=center;verticalAlign=top;childLayout=stackLayout;horizontal=1;startSize=26;horizontalStack=0;resizeParent=1;resizeParentMax=0;resizeLast=0;collapsible=1;marginBottom=0;whiteSpace=wrap;html=1;fontFamily=Helvetica;fontSize=11;fontColor=default;labelBackgroundColor=default;" vertex="1" parent="1">
          <mxGeometry x="500" y="-772" width="160" height="216" as="geometry" />
        </mxCell>
        <mxCell id="1ccCe6rOJYD6IKxsLuqJ-13" value="- reports_svc: Reports_svc&amp;nbsp;" style="text;strokeColor=none;fillColor=none;align=left;verticalAlign=top;spacingLeft=4;spacingRight=4;overflow=hidden;rotatable=0;points=[[0,0.5],[1,0.5]];portConstraint=eastwest;whiteSpace=wrap;html=1;fontFamily=Helvetica;fontSize=11;fontColor=default;labelBackgroundColor=default;" vertex="1" parent="1ccCe6rOJYD6IKxsLuqJ-9">
          <mxGeometry y="26" width="160" height="26" as="geometry" />
        </mxCell>
        <mxCell id="1ccCe6rOJYD6IKxsLuqJ-10" value="- posts_svc: Post_svc" style="text;strokeColor=none;fillColor=none;align=left;verticalAlign=top;spacingLeft=4;spacingRight=4;overflow=hidden;rotatable=0;points=[[0,0.5],[1,0.5]];portConstraint=eastwest;whiteSpace=wrap;html=1;fontFamily=Helvetica;fontSize=11;fontColor=default;labelBackgroundColor=default;" vertex="1" parent="1ccCe6rOJYD6IKxsLuqJ-9">
          <mxGeometry y="52" width="160" height="26" as="geometry" />
        </mxCell>
        <mxCell id="1ccCe6rOJYD6IKxsLuqJ-11" value="" style="line;strokeWidth=1;fillColor=none;align=left;verticalAlign=middle;spacingTop=-1;spacingLeft=3;spacingRight=3;rotatable=0;labelPosition=right;points=[];portConstraint=eastwest;strokeColor=inherit;fontFamily=Helvetica;fontSize=11;fontColor=default;labelBackgroundColor=default;" vertex="1" parent="1ccCe6rOJYD6IKxsLuqJ-9">
          <mxGeometry y="78" width="160" height="8" as="geometry" />
        </mxCell>
        <mxCell id="1ccCe6rOJYD6IKxsLuqJ-24" value="+ __construct(): Home_ctrl" style="text;strokeColor=none;fillColor=none;align=left;verticalAlign=top;spacingLeft=4;spacingRight=4;overflow=hidden;rotatable=0;points=[[0,0.5],[1,0.5]];portConstraint=eastwest;whiteSpace=wrap;html=1;fontFamily=Helvetica;fontSize=11;fontColor=default;labelBackgroundColor=default;" vertex="1" parent="1ccCe6rOJYD6IKxsLuqJ-9">
          <mxGeometry y="86" width="160" height="26" as="geometry" />
        </mxCell>
        <mxCell id="1ccCe6rOJYD6IKxsLuqJ-12" value="+ getPosts(): Post[ ]" style="text;strokeColor=none;fillColor=none;align=left;verticalAlign=top;spacingLeft=4;spacingRight=4;overflow=hidden;rotatable=0;points=[[0,0.5],[1,0.5]];portConstraint=eastwest;whiteSpace=wrap;html=1;fontFamily=Helvetica;fontSize=11;fontColor=default;labelBackgroundColor=default;" vertex="1" parent="1ccCe6rOJYD6IKxsLuqJ-9">
          <mxGeometry y="112" width="160" height="26" as="geometry" />
        </mxCell>
        <mxCell id="1ccCe6rOJYD6IKxsLuqJ-25" value="+ getReportTypes(): String[ ]" style="text;strokeColor=none;fillColor=none;align=left;verticalAlign=top;spacingLeft=4;spacingRight=4;overflow=hidden;rotatable=0;points=[[0,0.5],[1,0.5]];portConstraint=eastwest;whiteSpace=wrap;html=1;fontFamily=Helvetica;fontSize=11;fontColor=default;labelBackgroundColor=default;" vertex="1" parent="1ccCe6rOJYD6IKxsLuqJ-9">
          <mxGeometry y="138" width="160" height="26" as="geometry" />
        </mxCell>
        <mxCell id="1ccCe6rOJYD6IKxsLuqJ-27" value="+ getAudiences(int): String[ ]" style="text;strokeColor=none;fillColor=none;align=left;verticalAlign=top;spacingLeft=4;spacingRight=4;overflow=hidden;rotatable=0;points=[[0,0.5],[1,0.5]];portConstraint=eastwest;whiteSpace=wrap;html=1;fontFamily=Helvetica;fontSize=11;fontColor=default;labelBackgroundColor=default;" vertex="1" parent="1ccCe6rOJYD6IKxsLuqJ-9">
          <mxGeometry y="164" width="160" height="26" as="geometry" />
        </mxCell>
        <mxCell id="1ccCe6rOJYD6IKxsLuqJ-26" value="+ getCategories(int): String[ ]" style="text;strokeColor=none;fillColor=none;align=left;verticalAlign=top;spacingLeft=4;spacingRight=4;overflow=hidden;rotatable=0;points=[[0,0.5],[1,0.5]];portConstraint=eastwest;whiteSpace=wrap;html=1;fontFamily=Helvetica;fontSize=11;fontColor=default;labelBackgroundColor=default;" vertex="1" parent="1ccCe6rOJYD6IKxsLuqJ-9">
          <mxGeometry y="190" width="160" height="26" as="geometry" />
        </mxCell>
        <mxCell id="1ccCe6rOJYD6IKxsLuqJ-129" style="edgeStyle=none;shape=connector;rounded=0;orthogonalLoop=1;jettySize=auto;html=1;strokeColor=default;align=center;verticalAlign=middle;fontFamily=Helvetica;fontSize=11;fontColor=default;labelBackgroundColor=default;endArrow=open;endFill=0;dashed=1;" edge="1" parent="1" source="1ccCe6rOJYD6IKxsLuqJ-14" target="1ccCe6rOJYD6IKxsLuqJ-88">
          <mxGeometry relative="1" as="geometry" />
        </mxCell>
        <mxCell id="1ccCe6rOJYD6IKxsLuqJ-14" value="Reports_svc" style="swimlane;fontStyle=1;align=center;verticalAlign=top;childLayout=stackLayout;horizontal=1;startSize=26;horizontalStack=0;resizeParent=1;resizeParentMax=0;resizeLast=0;collapsible=1;marginBottom=0;whiteSpace=wrap;html=1;fontFamily=Helvetica;fontSize=11;fontColor=default;labelBackgroundColor=default;" vertex="1" parent="1">
          <mxGeometry x="450" y="-440" width="240" height="138" as="geometry" />
        </mxCell>
        <mxCell id="1ccCe6rOJYD6IKxsLuqJ-15" value="+ db: DB" style="text;strokeColor=none;fillColor=none;align=left;verticalAlign=top;spacingLeft=4;spacingRight=4;overflow=hidden;rotatable=0;points=[[0,0.5],[1,0.5]];portConstraint=eastwest;whiteSpace=wrap;html=1;fontFamily=Helvetica;fontSize=11;fontColor=default;labelBackgroundColor=default;" vertex="1" parent="1ccCe6rOJYD6IKxsLuqJ-14">
          <mxGeometry y="26" width="240" height="26" as="geometry" />
        </mxCell>
        <mxCell id="1ccCe6rOJYD6IKxsLuqJ-109" value="+ pdo: PDO" style="text;strokeColor=none;fillColor=none;align=left;verticalAlign=top;spacingLeft=4;spacingRight=4;overflow=hidden;rotatable=0;points=[[0,0.5],[1,0.5]];portConstraint=eastwest;whiteSpace=wrap;html=1;fontFamily=Helvetica;fontSize=11;fontColor=default;labelBackgroundColor=default;" vertex="1" parent="1ccCe6rOJYD6IKxsLuqJ-14">
          <mxGeometry y="52" width="240" height="26" as="geometry" />
        </mxCell>
        <mxCell id="1ccCe6rOJYD6IKxsLuqJ-16" value="" style="line;strokeWidth=1;fillColor=none;align=left;verticalAlign=middle;spacingTop=-1;spacingLeft=3;spacingRight=3;rotatable=0;labelPosition=right;points=[];portConstraint=eastwest;strokeColor=inherit;fontFamily=Helvetica;fontSize=11;fontColor=default;labelBackgroundColor=default;" vertex="1" parent="1ccCe6rOJYD6IKxsLuqJ-14">
          <mxGeometry y="78" width="240" height="8" as="geometry" />
        </mxCell>
        <mxCell id="1ccCe6rOJYD6IKxsLuqJ-110" value="+ getReportTypes: String[ ]" style="text;strokeColor=none;fillColor=none;align=left;verticalAlign=top;spacingLeft=4;spacingRight=4;overflow=hidden;rotatable=0;points=[[0,0.5],[1,0.5]];portConstraint=eastwest;whiteSpace=wrap;html=1;fontFamily=Helvetica;fontSize=11;fontColor=default;labelBackgroundColor=default;" vertex="1" parent="1ccCe6rOJYD6IKxsLuqJ-14">
          <mxGeometry y="86" width="240" height="26" as="geometry" />
        </mxCell>
        <mxCell id="1ccCe6rOJYD6IKxsLuqJ-17" value="+ registerReport(int, int, int, String): Void" style="text;strokeColor=none;fillColor=none;align=left;verticalAlign=top;spacingLeft=4;spacingRight=4;overflow=hidden;rotatable=0;points=[[0,0.5],[1,0.5]];portConstraint=eastwest;whiteSpace=wrap;html=1;fontFamily=Helvetica;fontSize=11;fontColor=default;labelBackgroundColor=default;" vertex="1" parent="1ccCe6rOJYD6IKxsLuqJ-14">
          <mxGeometry y="112" width="240" height="26" as="geometry" />
        </mxCell>
        <mxCell id="1ccCe6rOJYD6IKxsLuqJ-123" style="edgeStyle=none;shape=connector;rounded=0;orthogonalLoop=1;jettySize=auto;html=1;strokeColor=default;align=center;verticalAlign=middle;fontFamily=Helvetica;fontSize=11;fontColor=default;labelBackgroundColor=default;endArrow=diamondThin;endFill=1;endSize=8;" edge="1" parent="1" source="1ccCe6rOJYD6IKxsLuqJ-19" target="1ccCe6rOJYD6IKxsLuqJ-56">
          <mxGeometry relative="1" as="geometry" />
        </mxCell>
        <mxCell id="1ccCe6rOJYD6IKxsLuqJ-130" style="edgeStyle=none;shape=connector;rounded=0;orthogonalLoop=1;jettySize=auto;html=1;strokeColor=default;align=center;verticalAlign=middle;fontFamily=Helvetica;fontSize=11;fontColor=default;labelBackgroundColor=default;endArrow=open;endFill=0;dashed=1;" edge="1" parent="1" source="1ccCe6rOJYD6IKxsLuqJ-19" target="1ccCe6rOJYD6IKxsLuqJ-88">
          <mxGeometry relative="1" as="geometry" />
        </mxCell>
        <mxCell id="1ccCe6rOJYD6IKxsLuqJ-19" value="Posts_svc" style="swimlane;fontStyle=1;align=center;verticalAlign=top;childLayout=stackLayout;horizontal=1;startSize=26;horizontalStack=0;resizeParent=1;resizeParentMax=0;resizeLast=0;collapsible=1;marginBottom=0;whiteSpace=wrap;html=1;fontFamily=Helvetica;fontSize=11;fontColor=default;labelBackgroundColor=default;" vertex="1" parent="1">
          <mxGeometry x="770" y="-520" width="230" height="320" as="geometry" />
        </mxCell>
        <mxCell id="1ccCe6rOJYD6IKxsLuqJ-100" value="+ db: DB" style="text;strokeColor=none;fillColor=none;align=left;verticalAlign=top;spacingLeft=4;spacingRight=4;overflow=hidden;rotatable=0;points=[[0,0.5],[1,0.5]];portConstraint=eastwest;whiteSpace=wrap;html=1;fontFamily=Helvetica;fontSize=11;fontColor=default;labelBackgroundColor=default;" vertex="1" parent="1ccCe6rOJYD6IKxsLuqJ-19">
          <mxGeometry y="26" width="230" height="26" as="geometry" />
        </mxCell>
        <mxCell id="1ccCe6rOJYD6IKxsLuqJ-20" value="+ pdo: PDO" style="text;strokeColor=none;fillColor=none;align=left;verticalAlign=top;spacingLeft=4;spacingRight=4;overflow=hidden;rotatable=0;points=[[0,0.5],[1,0.5]];portConstraint=eastwest;whiteSpace=wrap;html=1;fontFamily=Helvetica;fontSize=11;fontColor=default;labelBackgroundColor=default;" vertex="1" parent="1ccCe6rOJYD6IKxsLuqJ-19">
          <mxGeometry y="52" width="230" height="26" as="geometry" />
        </mxCell>
        <mxCell id="1ccCe6rOJYD6IKxsLuqJ-21" value="" style="line;strokeWidth=1;fillColor=none;align=left;verticalAlign=middle;spacingTop=-1;spacingLeft=3;spacingRight=3;rotatable=0;labelPosition=right;points=[];portConstraint=eastwest;strokeColor=inherit;fontFamily=Helvetica;fontSize=11;fontColor=default;labelBackgroundColor=default;" vertex="1" parent="1ccCe6rOJYD6IKxsLuqJ-19">
          <mxGeometry y="78" width="230" height="8" as="geometry" />
        </mxCell>
        <mxCell id="1ccCe6rOJYD6IKxsLuqJ-22" value="+ approvePost(int): Void" style="text;strokeColor=none;fillColor=none;align=left;verticalAlign=top;spacingLeft=4;spacingRight=4;overflow=hidden;rotatable=0;points=[[0,0.5],[1,0.5]];portConstraint=eastwest;whiteSpace=wrap;html=1;fontFamily=Helvetica;fontSize=11;fontColor=default;labelBackgroundColor=default;" vertex="1" parent="1ccCe6rOJYD6IKxsLuqJ-19">
          <mxGeometry y="86" width="230" height="26" as="geometry" />
        </mxCell>
        <mxCell id="1ccCe6rOJYD6IKxsLuqJ-101" value="+ disapprovePost(int): Void" style="text;strokeColor=none;fillColor=none;align=left;verticalAlign=top;spacingLeft=4;spacingRight=4;overflow=hidden;rotatable=0;points=[[0,0.5],[1,0.5]];portConstraint=eastwest;whiteSpace=wrap;html=1;fontFamily=Helvetica;fontSize=11;fontColor=default;labelBackgroundColor=default;" vertex="1" parent="1ccCe6rOJYD6IKxsLuqJ-19">
          <mxGeometry y="112" width="230" height="26" as="geometry" />
        </mxCell>
        <mxCell id="1ccCe6rOJYD6IKxsLuqJ-103" value="+ getPost(int): Post" style="text;strokeColor=none;fillColor=none;align=left;verticalAlign=top;spacingLeft=4;spacingRight=4;overflow=hidden;rotatable=0;points=[[0,0.5],[1,0.5]];portConstraint=eastwest;whiteSpace=wrap;html=1;fontFamily=Helvetica;fontSize=11;fontColor=default;labelBackgroundColor=default;" vertex="1" parent="1ccCe6rOJYD6IKxsLuqJ-19">
          <mxGeometry y="138" width="230" height="26" as="geometry" />
        </mxCell>
        <mxCell id="1ccCe6rOJYD6IKxsLuqJ-105" value="+ getPosts(): Post[ ]" style="text;strokeColor=none;fillColor=none;align=left;verticalAlign=top;spacingLeft=4;spacingRight=4;overflow=hidden;rotatable=0;points=[[0,0.5],[1,0.5]];portConstraint=eastwest;whiteSpace=wrap;html=1;fontFamily=Helvetica;fontSize=11;fontColor=default;labelBackgroundColor=default;" vertex="1" parent="1ccCe6rOJYD6IKxsLuqJ-19">
          <mxGeometry y="164" width="230" height="26" as="geometry" />
        </mxCell>
        <mxCell id="1ccCe6rOJYD6IKxsLuqJ-106" value="+ getPosts(int): Post[ ]" style="text;strokeColor=none;fillColor=none;align=left;verticalAlign=top;spacingLeft=4;spacingRight=4;overflow=hidden;rotatable=0;points=[[0,0.5],[1,0.5]];portConstraint=eastwest;whiteSpace=wrap;html=1;fontFamily=Helvetica;fontSize=11;fontColor=default;labelBackgroundColor=default;" vertex="1" parent="1ccCe6rOJYD6IKxsLuqJ-19">
          <mxGeometry y="190" width="230" height="26" as="geometry" />
        </mxCell>
        <mxCell id="1ccCe6rOJYD6IKxsLuqJ-104" value="+ getCategories(int): String[ ]" style="text;strokeColor=none;fillColor=none;align=left;verticalAlign=top;spacingLeft=4;spacingRight=4;overflow=hidden;rotatable=0;points=[[0,0.5],[1,0.5]];portConstraint=eastwest;whiteSpace=wrap;html=1;fontFamily=Helvetica;fontSize=11;fontColor=default;labelBackgroundColor=default;" vertex="1" parent="1ccCe6rOJYD6IKxsLuqJ-19">
          <mxGeometry y="216" width="230" height="26" as="geometry" />
        </mxCell>
        <mxCell id="1ccCe6rOJYD6IKxsLuqJ-107" value="+ getAudiences(int): String[ ]" style="text;strokeColor=none;fillColor=none;align=left;verticalAlign=top;spacingLeft=4;spacingRight=4;overflow=hidden;rotatable=0;points=[[0,0.5],[1,0.5]];portConstraint=eastwest;whiteSpace=wrap;html=1;fontFamily=Helvetica;fontSize=11;fontColor=default;labelBackgroundColor=default;" vertex="1" parent="1ccCe6rOJYD6IKxsLuqJ-19">
          <mxGeometry y="242" width="230" height="26" as="geometry" />
        </mxCell>
        <mxCell id="1ccCe6rOJYD6IKxsLuqJ-108" value="+ insertPost(Post): Boolean" style="text;strokeColor=none;fillColor=none;align=left;verticalAlign=top;spacingLeft=4;spacingRight=4;overflow=hidden;rotatable=0;points=[[0,0.5],[1,0.5]];portConstraint=eastwest;whiteSpace=wrap;html=1;fontFamily=Helvetica;fontSize=11;fontColor=default;labelBackgroundColor=default;" vertex="1" parent="1ccCe6rOJYD6IKxsLuqJ-19">
          <mxGeometry y="268" width="230" height="26" as="geometry" />
        </mxCell>
        <mxCell id="1ccCe6rOJYD6IKxsLuqJ-102" value="+ searchPosts(String, Date, Date): Post[ ]" style="text;strokeColor=none;fillColor=none;align=left;verticalAlign=top;spacingLeft=4;spacingRight=4;overflow=hidden;rotatable=0;points=[[0,0.5],[1,0.5]];portConstraint=eastwest;whiteSpace=wrap;html=1;fontFamily=Helvetica;fontSize=11;fontColor=default;labelBackgroundColor=default;" vertex="1" parent="1ccCe6rOJYD6IKxsLuqJ-19">
          <mxGeometry y="294" width="230" height="26" as="geometry" />
        </mxCell>
        <mxCell id="1ccCe6rOJYD6IKxsLuqJ-23" style="edgeStyle=none;shape=connector;rounded=0;orthogonalLoop=1;jettySize=auto;html=1;strokeColor=default;align=center;verticalAlign=middle;fontFamily=Helvetica;fontSize=11;fontColor=default;labelBackgroundColor=default;endArrow=diamondThin;endFill=0;endSize=8;" edge="1" parent="1" source="1ccCe6rOJYD6IKxsLuqJ-9" target="1ccCe6rOJYD6IKxsLuqJ-19">
          <mxGeometry relative="1" as="geometry" />
        </mxCell>
        <mxCell id="1ccCe6rOJYD6IKxsLuqJ-42" style="edgeStyle=none;shape=connector;rounded=0;orthogonalLoop=1;jettySize=auto;html=1;strokeColor=default;align=center;verticalAlign=middle;fontFamily=Helvetica;fontSize=11;fontColor=default;labelBackgroundColor=default;endArrow=diamondThin;endFill=0;endSize=8;" edge="1" parent="1" source="1ccCe6rOJYD6IKxsLuqJ-28" target="1ccCe6rOJYD6IKxsLuqJ-38">
          <mxGeometry relative="1" as="geometry" />
        </mxCell>
        <mxCell id="1ccCe6rOJYD6IKxsLuqJ-122" style="edgeStyle=none;shape=connector;rounded=0;orthogonalLoop=1;jettySize=auto;html=1;strokeColor=default;align=center;verticalAlign=middle;fontFamily=Helvetica;fontSize=11;fontColor=default;labelBackgroundColor=default;endArrow=diamondThin;endFill=1;endSize=8;" edge="1" parent="1" source="1ccCe6rOJYD6IKxsLuqJ-28" target="1ccCe6rOJYD6IKxsLuqJ-43">
          <mxGeometry relative="1" as="geometry" />
        </mxCell>
        <mxCell id="1ccCe6rOJYD6IKxsLuqJ-28" value="Notifs_ctrl" style="swimlane;fontStyle=1;align=center;verticalAlign=top;childLayout=stackLayout;horizontal=1;startSize=26;horizontalStack=0;resizeParent=1;resizeParentMax=0;resizeLast=0;collapsible=1;marginBottom=0;whiteSpace=wrap;html=1;fontFamily=Helvetica;fontSize=11;fontColor=default;labelBackgroundColor=default;" vertex="1" parent="1">
          <mxGeometry x="1097" y="-750" width="160" height="216" as="geometry" />
        </mxCell>
        <mxCell id="1ccCe6rOJYD6IKxsLuqJ-29" value="- notif_svc: Notif_svc&amp;nbsp;" style="text;strokeColor=none;fillColor=none;align=left;verticalAlign=top;spacingLeft=4;spacingRight=4;overflow=hidden;rotatable=0;points=[[0,0.5],[1,0.5]];portConstraint=eastwest;whiteSpace=wrap;html=1;fontFamily=Helvetica;fontSize=11;fontColor=default;labelBackgroundColor=default;" vertex="1" parent="1ccCe6rOJYD6IKxsLuqJ-28">
          <mxGeometry y="26" width="160" height="26" as="geometry" />
        </mxCell>
        <mxCell id="1ccCe6rOJYD6IKxsLuqJ-30" value="- posts_svc: Post_svc" style="text;strokeColor=none;fillColor=none;align=left;verticalAlign=top;spacingLeft=4;spacingRight=4;overflow=hidden;rotatable=0;points=[[0,0.5],[1,0.5]];portConstraint=eastwest;whiteSpace=wrap;html=1;fontFamily=Helvetica;fontSize=11;fontColor=default;labelBackgroundColor=default;" vertex="1" parent="1ccCe6rOJYD6IKxsLuqJ-28">
          <mxGeometry y="52" width="160" height="26" as="geometry" />
        </mxCell>
        <mxCell id="1ccCe6rOJYD6IKxsLuqJ-31" value="" style="line;strokeWidth=1;fillColor=none;align=left;verticalAlign=middle;spacingTop=-1;spacingLeft=3;spacingRight=3;rotatable=0;labelPosition=right;points=[];portConstraint=eastwest;strokeColor=inherit;fontFamily=Helvetica;fontSize=11;fontColor=default;labelBackgroundColor=default;" vertex="1" parent="1ccCe6rOJYD6IKxsLuqJ-28">
          <mxGeometry y="78" width="160" height="8" as="geometry" />
        </mxCell>
        <mxCell id="1ccCe6rOJYD6IKxsLuqJ-32" value="+ __construct(): Notif_ctrl" style="text;strokeColor=none;fillColor=none;align=left;verticalAlign=top;spacingLeft=4;spacingRight=4;overflow=hidden;rotatable=0;points=[[0,0.5],[1,0.5]];portConstraint=eastwest;whiteSpace=wrap;html=1;fontFamily=Helvetica;fontSize=11;fontColor=default;labelBackgroundColor=default;" vertex="1" parent="1ccCe6rOJYD6IKxsLuqJ-28">
          <mxGeometry y="86" width="160" height="26" as="geometry" />
        </mxCell>
        <mxCell id="1ccCe6rOJYD6IKxsLuqJ-33" value="+ getNotifd(): Notification[ ]" style="text;strokeColor=none;fillColor=none;align=left;verticalAlign=top;spacingLeft=4;spacingRight=4;overflow=hidden;rotatable=0;points=[[0,0.5],[1,0.5]];portConstraint=eastwest;whiteSpace=wrap;html=1;fontFamily=Helvetica;fontSize=11;fontColor=default;labelBackgroundColor=default;" vertex="1" parent="1ccCe6rOJYD6IKxsLuqJ-28">
          <mxGeometry y="112" width="160" height="26" as="geometry" />
        </mxCell>
        <mxCell id="1ccCe6rOJYD6IKxsLuqJ-34" value="+ getPost(int): Post" style="text;strokeColor=none;fillColor=none;align=left;verticalAlign=top;spacingLeft=4;spacingRight=4;overflow=hidden;rotatable=0;points=[[0,0.5],[1,0.5]];portConstraint=eastwest;whiteSpace=wrap;html=1;fontFamily=Helvetica;fontSize=11;fontColor=default;labelBackgroundColor=default;" vertex="1" parent="1ccCe6rOJYD6IKxsLuqJ-28">
          <mxGeometry y="138" width="160" height="26" as="geometry" />
        </mxCell>
        <mxCell id="1ccCe6rOJYD6IKxsLuqJ-35" value="+ getAudiences(int): String[ ]" style="text;strokeColor=none;fillColor=none;align=left;verticalAlign=top;spacingLeft=4;spacingRight=4;overflow=hidden;rotatable=0;points=[[0,0.5],[1,0.5]];portConstraint=eastwest;whiteSpace=wrap;html=1;fontFamily=Helvetica;fontSize=11;fontColor=default;labelBackgroundColor=default;" vertex="1" parent="1ccCe6rOJYD6IKxsLuqJ-28">
          <mxGeometry y="164" width="160" height="26" as="geometry" />
        </mxCell>
        <mxCell id="1ccCe6rOJYD6IKxsLuqJ-36" value="+ getCategories(int): String[ ]" style="text;strokeColor=none;fillColor=none;align=left;verticalAlign=top;spacingLeft=4;spacingRight=4;overflow=hidden;rotatable=0;points=[[0,0.5],[1,0.5]];portConstraint=eastwest;whiteSpace=wrap;html=1;fontFamily=Helvetica;fontSize=11;fontColor=default;labelBackgroundColor=default;" vertex="1" parent="1ccCe6rOJYD6IKxsLuqJ-28">
          <mxGeometry y="190" width="160" height="26" as="geometry" />
        </mxCell>
        <mxCell id="1ccCe6rOJYD6IKxsLuqJ-37" style="edgeStyle=none;shape=connector;rounded=0;orthogonalLoop=1;jettySize=auto;html=1;strokeColor=default;align=center;verticalAlign=middle;fontFamily=Helvetica;fontSize=11;fontColor=default;labelBackgroundColor=default;endArrow=diamondThin;endFill=0;endSize=8;" edge="1" parent="1" source="1ccCe6rOJYD6IKxsLuqJ-28" target="1ccCe6rOJYD6IKxsLuqJ-19">
          <mxGeometry relative="1" as="geometry" />
        </mxCell>
        <mxCell id="1ccCe6rOJYD6IKxsLuqJ-121" style="edgeStyle=none;shape=connector;rounded=0;orthogonalLoop=1;jettySize=auto;html=1;strokeColor=default;align=center;verticalAlign=middle;fontFamily=Helvetica;fontSize=11;fontColor=default;labelBackgroundColor=default;endArrow=diamondThin;endFill=1;endSize=8;" edge="1" parent="1" source="1ccCe6rOJYD6IKxsLuqJ-38" target="1ccCe6rOJYD6IKxsLuqJ-43">
          <mxGeometry relative="1" as="geometry" />
        </mxCell>
        <mxCell id="1ccCe6rOJYD6IKxsLuqJ-131" style="edgeStyle=none;shape=connector;rounded=0;orthogonalLoop=1;jettySize=auto;html=1;strokeColor=default;align=center;verticalAlign=middle;fontFamily=Helvetica;fontSize=11;fontColor=default;labelBackgroundColor=default;endArrow=open;endFill=0;dashed=1;" edge="1" parent="1" source="1ccCe6rOJYD6IKxsLuqJ-38" target="1ccCe6rOJYD6IKxsLuqJ-88">
          <mxGeometry relative="1" as="geometry" />
        </mxCell>
        <mxCell id="1ccCe6rOJYD6IKxsLuqJ-38" value="Notif_svc" style="swimlane;fontStyle=1;align=center;verticalAlign=top;childLayout=stackLayout;horizontal=1;startSize=26;horizontalStack=0;resizeParent=1;resizeParentMax=0;resizeLast=0;collapsible=1;marginBottom=0;whiteSpace=wrap;html=1;fontFamily=Helvetica;fontSize=11;fontColor=default;labelBackgroundColor=default;" vertex="1" parent="1">
          <mxGeometry x="1300" y="-200" width="220" height="138" as="geometry" />
        </mxCell>
        <mxCell id="1ccCe6rOJYD6IKxsLuqJ-98" value="+ pdo: PDO" style="text;strokeColor=none;fillColor=none;align=left;verticalAlign=top;spacingLeft=4;spacingRight=4;overflow=hidden;rotatable=0;points=[[0,0.5],[1,0.5]];portConstraint=eastwest;whiteSpace=wrap;html=1;fontFamily=Helvetica;fontSize=11;fontColor=default;labelBackgroundColor=default;" vertex="1" parent="1ccCe6rOJYD6IKxsLuqJ-38">
          <mxGeometry y="26" width="220" height="26" as="geometry" />
        </mxCell>
        <mxCell id="1ccCe6rOJYD6IKxsLuqJ-39" value="+ db: DB" style="text;strokeColor=none;fillColor=none;align=left;verticalAlign=top;spacingLeft=4;spacingRight=4;overflow=hidden;rotatable=0;points=[[0,0.5],[1,0.5]];portConstraint=eastwest;whiteSpace=wrap;html=1;fontFamily=Helvetica;fontSize=11;fontColor=default;labelBackgroundColor=default;" vertex="1" parent="1ccCe6rOJYD6IKxsLuqJ-38">
          <mxGeometry y="52" width="220" height="26" as="geometry" />
        </mxCell>
        <mxCell id="1ccCe6rOJYD6IKxsLuqJ-40" value="" style="line;strokeWidth=1;fillColor=none;align=left;verticalAlign=middle;spacingTop=-1;spacingLeft=3;spacingRight=3;rotatable=0;labelPosition=right;points=[];portConstraint=eastwest;strokeColor=inherit;fontFamily=Helvetica;fontSize=11;fontColor=default;labelBackgroundColor=default;" vertex="1" parent="1ccCe6rOJYD6IKxsLuqJ-38">
          <mxGeometry y="78" width="220" height="8" as="geometry" />
        </mxCell>
        <mxCell id="1ccCe6rOJYD6IKxsLuqJ-99" value="+ dismiss(int): Void" style="text;strokeColor=none;fillColor=none;align=left;verticalAlign=top;spacingLeft=4;spacingRight=4;overflow=hidden;rotatable=0;points=[[0,0.5],[1,0.5]];portConstraint=eastwest;whiteSpace=wrap;html=1;fontFamily=Helvetica;fontSize=11;fontColor=default;labelBackgroundColor=default;" vertex="1" parent="1ccCe6rOJYD6IKxsLuqJ-38">
          <mxGeometry y="86" width="220" height="26" as="geometry" />
        </mxCell>
        <mxCell id="1ccCe6rOJYD6IKxsLuqJ-41" value="+ getNotifications(int): Notifications[ ]" style="text;strokeColor=none;fillColor=none;align=left;verticalAlign=top;spacingLeft=4;spacingRight=4;overflow=hidden;rotatable=0;points=[[0,0.5],[1,0.5]];portConstraint=eastwest;whiteSpace=wrap;html=1;fontFamily=Helvetica;fontSize=11;fontColor=default;labelBackgroundColor=default;" vertex="1" parent="1ccCe6rOJYD6IKxsLuqJ-38">
          <mxGeometry y="112" width="220" height="26" as="geometry" />
        </mxCell>
        <mxCell id="1ccCe6rOJYD6IKxsLuqJ-43" value="Notification" style="swimlane;fontStyle=1;align=center;verticalAlign=top;childLayout=stackLayout;horizontal=1;startSize=26;horizontalStack=0;resizeParent=1;resizeParentMax=0;resizeLast=0;collapsible=1;marginBottom=0;whiteSpace=wrap;html=1;fontFamily=Helvetica;fontSize=11;fontColor=default;labelBackgroundColor=default;" vertex="1" parent="1">
          <mxGeometry x="1370" y="-836" width="160" height="320" as="geometry" />
        </mxCell>
        <mxCell id="1ccCe6rOJYD6IKxsLuqJ-44" value="+ notification_id: int" style="text;strokeColor=none;fillColor=none;align=left;verticalAlign=top;spacingLeft=4;spacingRight=4;overflow=hidden;rotatable=0;points=[[0,0.5],[1,0.5]];portConstraint=eastwest;whiteSpace=wrap;html=1;fontFamily=Helvetica;fontSize=11;fontColor=default;labelBackgroundColor=default;" vertex="1" parent="1ccCe6rOJYD6IKxsLuqJ-43">
          <mxGeometry y="26" width="160" height="26" as="geometry" />
        </mxCell>
        <mxCell id="1ccCe6rOJYD6IKxsLuqJ-49" value="+ user_id: int" style="text;strokeColor=none;fillColor=none;align=left;verticalAlign=top;spacingLeft=4;spacingRight=4;overflow=hidden;rotatable=0;points=[[0,0.5],[1,0.5]];portConstraint=eastwest;whiteSpace=wrap;html=1;fontFamily=Helvetica;fontSize=11;fontColor=default;labelBackgroundColor=default;" vertex="1" parent="1ccCe6rOJYD6IKxsLuqJ-43">
          <mxGeometry y="52" width="160" height="26" as="geometry" />
        </mxCell>
        <mxCell id="1ccCe6rOJYD6IKxsLuqJ-48" value="+ post_id: int" style="text;strokeColor=none;fillColor=none;align=left;verticalAlign=top;spacingLeft=4;spacingRight=4;overflow=hidden;rotatable=0;points=[[0,0.5],[1,0.5]];portConstraint=eastwest;whiteSpace=wrap;html=1;fontFamily=Helvetica;fontSize=11;fontColor=default;labelBackgroundColor=default;" vertex="1" parent="1ccCe6rOJYD6IKxsLuqJ-43">
          <mxGeometry y="78" width="160" height="26" as="geometry" />
        </mxCell>
        <mxCell id="1ccCe6rOJYD6IKxsLuqJ-52" value="+ title: String" style="text;strokeColor=none;fillColor=none;align=left;verticalAlign=top;spacingLeft=4;spacingRight=4;overflow=hidden;rotatable=0;points=[[0,0.5],[1,0.5]];portConstraint=eastwest;whiteSpace=wrap;html=1;fontFamily=Helvetica;fontSize=11;fontColor=default;labelBackgroundColor=default;" vertex="1" parent="1ccCe6rOJYD6IKxsLuqJ-43">
          <mxGeometry y="104" width="160" height="26" as="geometry" />
        </mxCell>
        <mxCell id="1ccCe6rOJYD6IKxsLuqJ-53" value="+ type_id: int" style="text;strokeColor=none;fillColor=none;align=left;verticalAlign=top;spacingLeft=4;spacingRight=4;overflow=hidden;rotatable=0;points=[[0,0.5],[1,0.5]];portConstraint=eastwest;whiteSpace=wrap;html=1;fontFamily=Helvetica;fontSize=11;fontColor=default;labelBackgroundColor=default;" vertex="1" parent="1ccCe6rOJYD6IKxsLuqJ-43">
          <mxGeometry y="130" width="160" height="26" as="geometry" />
        </mxCell>
        <mxCell id="1ccCe6rOJYD6IKxsLuqJ-54" value="+ type: String" style="text;strokeColor=none;fillColor=none;align=left;verticalAlign=top;spacingLeft=4;spacingRight=4;overflow=hidden;rotatable=0;points=[[0,0.5],[1,0.5]];portConstraint=eastwest;whiteSpace=wrap;html=1;fontFamily=Helvetica;fontSize=11;fontColor=default;labelBackgroundColor=default;" vertex="1" parent="1ccCe6rOJYD6IKxsLuqJ-43">
          <mxGeometry y="156" width="160" height="26" as="geometry" />
        </mxCell>
        <mxCell id="1ccCe6rOJYD6IKxsLuqJ-51" value="+ description: String" style="text;strokeColor=none;fillColor=none;align=left;verticalAlign=top;spacingLeft=4;spacingRight=4;overflow=hidden;rotatable=0;points=[[0,0.5],[1,0.5]];portConstraint=eastwest;whiteSpace=wrap;html=1;fontFamily=Helvetica;fontSize=11;fontColor=default;labelBackgroundColor=default;" vertex="1" parent="1ccCe6rOJYD6IKxsLuqJ-43">
          <mxGeometry y="182" width="160" height="26" as="geometry" />
        </mxCell>
        <mxCell id="1ccCe6rOJYD6IKxsLuqJ-50" value="+ date: Date" style="text;strokeColor=none;fillColor=none;align=left;verticalAlign=top;spacingLeft=4;spacingRight=4;overflow=hidden;rotatable=0;points=[[0,0.5],[1,0.5]];portConstraint=eastwest;whiteSpace=wrap;html=1;fontFamily=Helvetica;fontSize=11;fontColor=default;labelBackgroundColor=default;" vertex="1" parent="1ccCe6rOJYD6IKxsLuqJ-43">
          <mxGeometry y="208" width="160" height="26" as="geometry" />
        </mxCell>
        <mxCell id="1ccCe6rOJYD6IKxsLuqJ-47" value="+ state: String" style="text;strokeColor=none;fillColor=none;align=left;verticalAlign=top;spacingLeft=4;spacingRight=4;overflow=hidden;rotatable=0;points=[[0,0.5],[1,0.5]];portConstraint=eastwest;whiteSpace=wrap;html=1;fontFamily=Helvetica;fontSize=11;fontColor=default;labelBackgroundColor=default;" vertex="1" parent="1ccCe6rOJYD6IKxsLuqJ-43">
          <mxGeometry y="234" width="160" height="26" as="geometry" />
        </mxCell>
        <mxCell id="1ccCe6rOJYD6IKxsLuqJ-45" value="" style="line;strokeWidth=1;fillColor=none;align=left;verticalAlign=middle;spacingTop=-1;spacingLeft=3;spacingRight=3;rotatable=0;labelPosition=right;points=[];portConstraint=eastwest;strokeColor=inherit;fontFamily=Helvetica;fontSize=11;fontColor=default;labelBackgroundColor=default;" vertex="1" parent="1ccCe6rOJYD6IKxsLuqJ-43">
          <mxGeometry y="260" width="160" height="8" as="geometry" />
        </mxCell>
        <mxCell id="1ccCe6rOJYD6IKxsLuqJ-55" value="+ serAttribute(Attribute): Void" style="text;strokeColor=none;fillColor=none;align=left;verticalAlign=top;spacingLeft=4;spacingRight=4;overflow=hidden;rotatable=0;points=[[0,0.5],[1,0.5]];portConstraint=eastwest;whiteSpace=wrap;html=1;fontFamily=Helvetica;fontSize=11;fontColor=default;labelBackgroundColor=default;" vertex="1" parent="1ccCe6rOJYD6IKxsLuqJ-43">
          <mxGeometry y="268" width="160" height="26" as="geometry" />
        </mxCell>
        <mxCell id="1ccCe6rOJYD6IKxsLuqJ-46" value="+ getAttribute(): Attribute" style="text;strokeColor=none;fillColor=none;align=left;verticalAlign=top;spacingLeft=4;spacingRight=4;overflow=hidden;rotatable=0;points=[[0,0.5],[1,0.5]];portConstraint=eastwest;whiteSpace=wrap;html=1;fontFamily=Helvetica;fontSize=11;fontColor=default;labelBackgroundColor=default;" vertex="1" parent="1ccCe6rOJYD6IKxsLuqJ-43">
          <mxGeometry y="294" width="160" height="26" as="geometry" />
        </mxCell>
        <mxCell id="1ccCe6rOJYD6IKxsLuqJ-125" style="edgeStyle=none;shape=connector;rounded=0;orthogonalLoop=1;jettySize=auto;html=1;strokeColor=default;align=center;verticalAlign=middle;fontFamily=Helvetica;fontSize=11;fontColor=default;labelBackgroundColor=default;endArrow=none;endFill=0;startArrow=diamondThin;startFill=1;endSize=8;startSize=8;" edge="1" parent="1" source="1ccCe6rOJYD6IKxsLuqJ-56" target="1ccCe6rOJYD6IKxsLuqJ-28">
          <mxGeometry relative="1" as="geometry" />
        </mxCell>
        <mxCell id="1ccCe6rOJYD6IKxsLuqJ-56" value="Post" style="swimlane;fontStyle=1;align=center;verticalAlign=top;childLayout=stackLayout;horizontal=1;startSize=26;horizontalStack=0;resizeParent=1;resizeParentMax=0;resizeLast=0;collapsible=1;marginBottom=0;whiteSpace=wrap;html=1;fontFamily=Helvetica;fontSize=11;fontColor=default;labelBackgroundColor=default;" vertex="1" parent="1">
          <mxGeometry x="800" y="-1144" width="160" height="476" as="geometry" />
        </mxCell>
        <mxCell id="1ccCe6rOJYD6IKxsLuqJ-59" value="+ post_id: int" style="text;strokeColor=none;fillColor=none;align=left;verticalAlign=top;spacingLeft=4;spacingRight=4;overflow=hidden;rotatable=0;points=[[0,0.5],[1,0.5]];portConstraint=eastwest;whiteSpace=wrap;html=1;fontFamily=Helvetica;fontSize=11;fontColor=default;labelBackgroundColor=default;" vertex="1" parent="1ccCe6rOJYD6IKxsLuqJ-56">
          <mxGeometry y="26" width="160" height="26" as="geometry" />
        </mxCell>
        <mxCell id="1ccCe6rOJYD6IKxsLuqJ-57" value="+ publisher_id: int" style="text;strokeColor=none;fillColor=none;align=left;verticalAlign=top;spacingLeft=4;spacingRight=4;overflow=hidden;rotatable=0;points=[[0,0.5],[1,0.5]];portConstraint=eastwest;whiteSpace=wrap;html=1;fontFamily=Helvetica;fontSize=11;fontColor=default;labelBackgroundColor=default;" vertex="1" parent="1ccCe6rOJYD6IKxsLuqJ-56">
          <mxGeometry y="52" width="160" height="26" as="geometry" />
        </mxCell>
        <mxCell id="1ccCe6rOJYD6IKxsLuqJ-69" value="+ publisher_name: String" style="text;strokeColor=none;fillColor=none;align=left;verticalAlign=top;spacingLeft=4;spacingRight=4;overflow=hidden;rotatable=0;points=[[0,0.5],[1,0.5]];portConstraint=eastwest;whiteSpace=wrap;html=1;fontFamily=Helvetica;fontSize=11;fontColor=default;labelBackgroundColor=default;" vertex="1" parent="1ccCe6rOJYD6IKxsLuqJ-56">
          <mxGeometry y="78" width="160" height="26" as="geometry" />
        </mxCell>
        <mxCell id="1ccCe6rOJYD6IKxsLuqJ-60" value="+ title: String" style="text;strokeColor=none;fillColor=none;align=left;verticalAlign=top;spacingLeft=4;spacingRight=4;overflow=hidden;rotatable=0;points=[[0,0.5],[1,0.5]];portConstraint=eastwest;whiteSpace=wrap;html=1;fontFamily=Helvetica;fontSize=11;fontColor=default;labelBackgroundColor=default;" vertex="1" parent="1ccCe6rOJYD6IKxsLuqJ-56">
          <mxGeometry y="104" width="160" height="26" as="geometry" />
        </mxCell>
        <mxCell id="1ccCe6rOJYD6IKxsLuqJ-64" value="+ start_date: Date" style="text;strokeColor=none;fillColor=none;align=left;verticalAlign=top;spacingLeft=4;spacingRight=4;overflow=hidden;rotatable=0;points=[[0,0.5],[1,0.5]];portConstraint=eastwest;whiteSpace=wrap;html=1;fontFamily=Helvetica;fontSize=11;fontColor=default;labelBackgroundColor=default;" vertex="1" parent="1ccCe6rOJYD6IKxsLuqJ-56">
          <mxGeometry y="130" width="160" height="26" as="geometry" />
        </mxCell>
        <mxCell id="1ccCe6rOJYD6IKxsLuqJ-58" value="+ start_time: Time" style="text;strokeColor=none;fillColor=none;align=left;verticalAlign=top;spacingLeft=4;spacingRight=4;overflow=hidden;rotatable=0;points=[[0,0.5],[1,0.5]];portConstraint=eastwest;whiteSpace=wrap;html=1;fontFamily=Helvetica;fontSize=11;fontColor=default;labelBackgroundColor=default;" vertex="1" parent="1ccCe6rOJYD6IKxsLuqJ-56">
          <mxGeometry y="156" width="160" height="26" as="geometry" />
        </mxCell>
        <mxCell id="1ccCe6rOJYD6IKxsLuqJ-61" value="+ end_date: Date" style="text;strokeColor=none;fillColor=none;align=left;verticalAlign=top;spacingLeft=4;spacingRight=4;overflow=hidden;rotatable=0;points=[[0,0.5],[1,0.5]];portConstraint=eastwest;whiteSpace=wrap;html=1;fontFamily=Helvetica;fontSize=11;fontColor=default;labelBackgroundColor=default;" vertex="1" parent="1ccCe6rOJYD6IKxsLuqJ-56">
          <mxGeometry y="182" width="160" height="26" as="geometry" />
        </mxCell>
        <mxCell id="1ccCe6rOJYD6IKxsLuqJ-62" value="+ end_time: Time" style="text;strokeColor=none;fillColor=none;align=left;verticalAlign=top;spacingLeft=4;spacingRight=4;overflow=hidden;rotatable=0;points=[[0,0.5],[1,0.5]];portConstraint=eastwest;whiteSpace=wrap;html=1;fontFamily=Helvetica;fontSize=11;fontColor=default;labelBackgroundColor=default;" vertex="1" parent="1ccCe6rOJYD6IKxsLuqJ-56">
          <mxGeometry y="208" width="160" height="26" as="geometry" />
        </mxCell>
        <mxCell id="1ccCe6rOJYD6IKxsLuqJ-70" value="+ capacity: int" style="text;strokeColor=none;fillColor=none;align=left;verticalAlign=top;spacingLeft=4;spacingRight=4;overflow=hidden;rotatable=0;points=[[0,0.5],[1,0.5]];portConstraint=eastwest;whiteSpace=wrap;html=1;fontFamily=Helvetica;fontSize=11;fontColor=default;labelBackgroundColor=default;" vertex="1" parent="1ccCe6rOJYD6IKxsLuqJ-56">
          <mxGeometry y="234" width="160" height="26" as="geometry" />
        </mxCell>
        <mxCell id="1ccCe6rOJYD6IKxsLuqJ-71" value="+ attendances: int" style="text;strokeColor=none;fillColor=none;align=left;verticalAlign=top;spacingLeft=4;spacingRight=4;overflow=hidden;rotatable=0;points=[[0,0.5],[1,0.5]];portConstraint=eastwest;whiteSpace=wrap;html=1;fontFamily=Helvetica;fontSize=11;fontColor=default;labelBackgroundColor=default;" vertex="1" parent="1ccCe6rOJYD6IKxsLuqJ-56">
          <mxGeometry y="260" width="160" height="26" as="geometry" />
        </mxCell>
        <mxCell id="1ccCe6rOJYD6IKxsLuqJ-72" value="+ reports: int" style="text;strokeColor=none;fillColor=none;align=left;verticalAlign=top;spacingLeft=4;spacingRight=4;overflow=hidden;rotatable=0;points=[[0,0.5],[1,0.5]];portConstraint=eastwest;whiteSpace=wrap;html=1;fontFamily=Helvetica;fontSize=11;fontColor=default;labelBackgroundColor=default;" vertex="1" parent="1ccCe6rOJYD6IKxsLuqJ-56">
          <mxGeometry y="286" width="160" height="26" as="geometry" />
        </mxCell>
        <mxCell id="1ccCe6rOJYD6IKxsLuqJ-73" value="+ location: String" style="text;strokeColor=none;fillColor=none;align=left;verticalAlign=top;spacingLeft=4;spacingRight=4;overflow=hidden;rotatable=0;points=[[0,0.5],[1,0.5]];portConstraint=eastwest;whiteSpace=wrap;html=1;fontFamily=Helvetica;fontSize=11;fontColor=default;labelBackgroundColor=default;" vertex="1" parent="1ccCe6rOJYD6IKxsLuqJ-56">
          <mxGeometry y="312" width="160" height="26" as="geometry" />
        </mxCell>
        <mxCell id="1ccCe6rOJYD6IKxsLuqJ-63" value="+ description: String" style="text;strokeColor=none;fillColor=none;align=left;verticalAlign=top;spacingLeft=4;spacingRight=4;overflow=hidden;rotatable=0;points=[[0,0.5],[1,0.5]];portConstraint=eastwest;whiteSpace=wrap;html=1;fontFamily=Helvetica;fontSize=11;fontColor=default;labelBackgroundColor=default;" vertex="1" parent="1ccCe6rOJYD6IKxsLuqJ-56">
          <mxGeometry y="338" width="160" height="26" as="geometry" />
        </mxCell>
        <mxCell id="1ccCe6rOJYD6IKxsLuqJ-74" value="+ url: String" style="text;strokeColor=none;fillColor=none;align=left;verticalAlign=top;spacingLeft=4;spacingRight=4;overflow=hidden;rotatable=0;points=[[0,0.5],[1,0.5]];portConstraint=eastwest;whiteSpace=wrap;html=1;fontFamily=Helvetica;fontSize=11;fontColor=default;labelBackgroundColor=default;" vertex="1" parent="1ccCe6rOJYD6IKxsLuqJ-56">
          <mxGeometry y="364" width="160" height="26" as="geometry" />
        </mxCell>
        <mxCell id="1ccCe6rOJYD6IKxsLuqJ-65" value="+ state: String" style="text;strokeColor=none;fillColor=none;align=left;verticalAlign=top;spacingLeft=4;spacingRight=4;overflow=hidden;rotatable=0;points=[[0,0.5],[1,0.5]];portConstraint=eastwest;whiteSpace=wrap;html=1;fontFamily=Helvetica;fontSize=11;fontColor=default;labelBackgroundColor=default;" vertex="1" parent="1ccCe6rOJYD6IKxsLuqJ-56">
          <mxGeometry y="390" width="160" height="26" as="geometry" />
        </mxCell>
        <mxCell id="1ccCe6rOJYD6IKxsLuqJ-66" value="" style="line;strokeWidth=1;fillColor=none;align=left;verticalAlign=middle;spacingTop=-1;spacingLeft=3;spacingRight=3;rotatable=0;labelPosition=right;points=[];portConstraint=eastwest;strokeColor=inherit;fontFamily=Helvetica;fontSize=11;fontColor=default;labelBackgroundColor=default;" vertex="1" parent="1ccCe6rOJYD6IKxsLuqJ-56">
          <mxGeometry y="416" width="160" height="8" as="geometry" />
        </mxCell>
        <mxCell id="1ccCe6rOJYD6IKxsLuqJ-67" value="+ serAttribute(Attribute): Void" style="text;strokeColor=none;fillColor=none;align=left;verticalAlign=top;spacingLeft=4;spacingRight=4;overflow=hidden;rotatable=0;points=[[0,0.5],[1,0.5]];portConstraint=eastwest;whiteSpace=wrap;html=1;fontFamily=Helvetica;fontSize=11;fontColor=default;labelBackgroundColor=default;" vertex="1" parent="1ccCe6rOJYD6IKxsLuqJ-56">
          <mxGeometry y="424" width="160" height="26" as="geometry" />
        </mxCell>
        <mxCell id="1ccCe6rOJYD6IKxsLuqJ-68" value="+ getAttribute(): Attribute" style="text;strokeColor=none;fillColor=none;align=left;verticalAlign=top;spacingLeft=4;spacingRight=4;overflow=hidden;rotatable=0;points=[[0,0.5],[1,0.5]];portConstraint=eastwest;whiteSpace=wrap;html=1;fontFamily=Helvetica;fontSize=11;fontColor=default;labelBackgroundColor=default;" vertex="1" parent="1ccCe6rOJYD6IKxsLuqJ-56">
          <mxGeometry y="450" width="160" height="26" as="geometry" />
        </mxCell>
        <mxCell id="1ccCe6rOJYD6IKxsLuqJ-127" style="edgeStyle=none;shape=connector;rounded=0;orthogonalLoop=1;jettySize=auto;html=1;strokeColor=default;align=center;verticalAlign=middle;fontFamily=Helvetica;fontSize=11;fontColor=default;labelBackgroundColor=default;endArrow=none;endFill=0;startArrow=diamondThin;startFill=1;endSize=8;startSize=8;" edge="1" parent="1" source="1ccCe6rOJYD6IKxsLuqJ-75" target="1ccCe6rOJYD6IKxsLuqJ-9">
          <mxGeometry relative="1" as="geometry" />
        </mxCell>
        <mxCell id="1ccCe6rOJYD6IKxsLuqJ-75" value="User" style="swimlane;fontStyle=1;align=center;verticalAlign=top;childLayout=stackLayout;horizontal=1;startSize=26;horizontalStack=0;resizeParent=1;resizeParentMax=0;resizeLast=0;collapsible=1;marginBottom=0;whiteSpace=wrap;html=1;fontFamily=Helvetica;fontSize=11;fontColor=default;labelBackgroundColor=default;" vertex="1" parent="1">
          <mxGeometry x="180" y="-1040" width="160" height="268" as="geometry" />
        </mxCell>
        <mxCell id="1ccCe6rOJYD6IKxsLuqJ-76" value="+ user_id: int" style="text;strokeColor=none;fillColor=none;align=left;verticalAlign=top;spacingLeft=4;spacingRight=4;overflow=hidden;rotatable=0;points=[[0,0.5],[1,0.5]];portConstraint=eastwest;whiteSpace=wrap;html=1;fontFamily=Helvetica;fontSize=11;fontColor=default;labelBackgroundColor=default;" vertex="1" parent="1ccCe6rOJYD6IKxsLuqJ-75">
          <mxGeometry y="26" width="160" height="26" as="geometry" />
        </mxCell>
        <mxCell id="1ccCe6rOJYD6IKxsLuqJ-77" value="+ name: String" style="text;strokeColor=none;fillColor=none;align=left;verticalAlign=top;spacingLeft=4;spacingRight=4;overflow=hidden;rotatable=0;points=[[0,0.5],[1,0.5]];portConstraint=eastwest;whiteSpace=wrap;html=1;fontFamily=Helvetica;fontSize=11;fontColor=default;labelBackgroundColor=default;" vertex="1" parent="1ccCe6rOJYD6IKxsLuqJ-75">
          <mxGeometry y="52" width="160" height="26" as="geometry" />
        </mxCell>
        <mxCell id="1ccCe6rOJYD6IKxsLuqJ-78" value="+ username: String" style="text;strokeColor=none;fillColor=none;align=left;verticalAlign=top;spacingLeft=4;spacingRight=4;overflow=hidden;rotatable=0;points=[[0,0.5],[1,0.5]];portConstraint=eastwest;whiteSpace=wrap;html=1;fontFamily=Helvetica;fontSize=11;fontColor=default;labelBackgroundColor=default;" vertex="1" parent="1ccCe6rOJYD6IKxsLuqJ-75">
          <mxGeometry y="78" width="160" height="26" as="geometry" />
        </mxCell>
        <mxCell id="1ccCe6rOJYD6IKxsLuqJ-79" value="+ email: String" style="text;strokeColor=none;fillColor=none;align=left;verticalAlign=top;spacingLeft=4;spacingRight=4;overflow=hidden;rotatable=0;points=[[0,0.5],[1,0.5]];portConstraint=eastwest;whiteSpace=wrap;html=1;fontFamily=Helvetica;fontSize=11;fontColor=default;labelBackgroundColor=default;" vertex="1" parent="1ccCe6rOJYD6IKxsLuqJ-75">
          <mxGeometry y="104" width="160" height="26" as="geometry" />
        </mxCell>
        <mxCell id="1ccCe6rOJYD6IKxsLuqJ-80" value="+ password: String" style="text;strokeColor=none;fillColor=none;align=left;verticalAlign=top;spacingLeft=4;spacingRight=4;overflow=hidden;rotatable=0;points=[[0,0.5],[1,0.5]];portConstraint=eastwest;whiteSpace=wrap;html=1;fontFamily=Helvetica;fontSize=11;fontColor=default;labelBackgroundColor=default;" vertex="1" parent="1ccCe6rOJYD6IKxsLuqJ-75">
          <mxGeometry y="130" width="160" height="26" as="geometry" />
        </mxCell>
        <mxCell id="1ccCe6rOJYD6IKxsLuqJ-83" value="+ typr: String" style="text;strokeColor=none;fillColor=none;align=left;verticalAlign=top;spacingLeft=4;spacingRight=4;overflow=hidden;rotatable=0;points=[[0,0.5],[1,0.5]];portConstraint=eastwest;whiteSpace=wrap;html=1;fontFamily=Helvetica;fontSize=11;fontColor=default;labelBackgroundColor=default;" vertex="1" parent="1ccCe6rOJYD6IKxsLuqJ-75">
          <mxGeometry y="156" width="160" height="26" as="geometry" />
        </mxCell>
        <mxCell id="1ccCe6rOJYD6IKxsLuqJ-84" value="+ state: String" style="text;strokeColor=none;fillColor=none;align=left;verticalAlign=top;spacingLeft=4;spacingRight=4;overflow=hidden;rotatable=0;points=[[0,0.5],[1,0.5]];portConstraint=eastwest;whiteSpace=wrap;html=1;fontFamily=Helvetica;fontSize=11;fontColor=default;labelBackgroundColor=default;" vertex="1" parent="1ccCe6rOJYD6IKxsLuqJ-75">
          <mxGeometry y="182" width="160" height="26" as="geometry" />
        </mxCell>
        <mxCell id="1ccCe6rOJYD6IKxsLuqJ-85" value="" style="line;strokeWidth=1;fillColor=none;align=left;verticalAlign=middle;spacingTop=-1;spacingLeft=3;spacingRight=3;rotatable=0;labelPosition=right;points=[];portConstraint=eastwest;strokeColor=inherit;fontFamily=Helvetica;fontSize=11;fontColor=default;labelBackgroundColor=default;" vertex="1" parent="1ccCe6rOJYD6IKxsLuqJ-75">
          <mxGeometry y="208" width="160" height="8" as="geometry" />
        </mxCell>
        <mxCell id="1ccCe6rOJYD6IKxsLuqJ-86" value="+ serAttribute(Attribute): Void" style="text;strokeColor=none;fillColor=none;align=left;verticalAlign=top;spacingLeft=4;spacingRight=4;overflow=hidden;rotatable=0;points=[[0,0.5],[1,0.5]];portConstraint=eastwest;whiteSpace=wrap;html=1;fontFamily=Helvetica;fontSize=11;fontColor=default;labelBackgroundColor=default;" vertex="1" parent="1ccCe6rOJYD6IKxsLuqJ-75">
          <mxGeometry y="216" width="160" height="26" as="geometry" />
        </mxCell>
        <mxCell id="1ccCe6rOJYD6IKxsLuqJ-87" value="+ getAttribute(): Attribute" style="text;strokeColor=none;fillColor=none;align=left;verticalAlign=top;spacingLeft=4;spacingRight=4;overflow=hidden;rotatable=0;points=[[0,0.5],[1,0.5]];portConstraint=eastwest;whiteSpace=wrap;html=1;fontFamily=Helvetica;fontSize=11;fontColor=default;labelBackgroundColor=default;" vertex="1" parent="1ccCe6rOJYD6IKxsLuqJ-75">
          <mxGeometry y="242" width="160" height="26" as="geometry" />
        </mxCell>
        <mxCell id="1ccCe6rOJYD6IKxsLuqJ-88" value="DB" style="swimlane;fontStyle=1;align=center;verticalAlign=top;childLayout=stackLayout;horizontal=1;startSize=26;horizontalStack=0;resizeParent=1;resizeParentMax=0;resizeLast=0;collapsible=1;marginBottom=0;whiteSpace=wrap;html=1;fontFamily=Helvetica;fontSize=11;fontColor=default;labelBackgroundColor=default;" vertex="1" parent="1">
          <mxGeometry x="170" y="-270" width="160" height="242" as="geometry" />
        </mxCell>
        <mxCell id="1ccCe6rOJYD6IKxsLuqJ-89" value="+ host: String" style="text;strokeColor=none;fillColor=none;align=left;verticalAlign=top;spacingLeft=4;spacingRight=4;overflow=hidden;rotatable=0;points=[[0,0.5],[1,0.5]];portConstraint=eastwest;whiteSpace=wrap;html=1;fontFamily=Helvetica;fontSize=11;fontColor=default;labelBackgroundColor=default;" vertex="1" parent="1ccCe6rOJYD6IKxsLuqJ-88">
          <mxGeometry y="26" width="160" height="26" as="geometry" />
        </mxCell>
        <mxCell id="1ccCe6rOJYD6IKxsLuqJ-93" value="+ db_name: String" style="text;strokeColor=none;fillColor=none;align=left;verticalAlign=top;spacingLeft=4;spacingRight=4;overflow=hidden;rotatable=0;points=[[0,0.5],[1,0.5]];portConstraint=eastwest;whiteSpace=wrap;html=1;fontFamily=Helvetica;fontSize=11;fontColor=default;labelBackgroundColor=default;" vertex="1" parent="1ccCe6rOJYD6IKxsLuqJ-88">
          <mxGeometry y="52" width="160" height="26" as="geometry" />
        </mxCell>
        <mxCell id="1ccCe6rOJYD6IKxsLuqJ-94" value="+ user: String" style="text;strokeColor=none;fillColor=none;align=left;verticalAlign=top;spacingLeft=4;spacingRight=4;overflow=hidden;rotatable=0;points=[[0,0.5],[1,0.5]];portConstraint=eastwest;whiteSpace=wrap;html=1;fontFamily=Helvetica;fontSize=11;fontColor=default;labelBackgroundColor=default;" vertex="1" parent="1ccCe6rOJYD6IKxsLuqJ-88">
          <mxGeometry y="78" width="160" height="26" as="geometry" />
        </mxCell>
        <mxCell id="1ccCe6rOJYD6IKxsLuqJ-95" value="+ pass: String" style="text;strokeColor=none;fillColor=none;align=left;verticalAlign=top;spacingLeft=4;spacingRight=4;overflow=hidden;rotatable=0;points=[[0,0.5],[1,0.5]];portConstraint=eastwest;whiteSpace=wrap;html=1;fontFamily=Helvetica;fontSize=11;fontColor=default;labelBackgroundColor=default;" vertex="1" parent="1ccCe6rOJYD6IKxsLuqJ-88">
          <mxGeometry y="104" width="160" height="26" as="geometry" />
        </mxCell>
        <mxCell id="1ccCe6rOJYD6IKxsLuqJ-92" value="+ socket: String" style="text;strokeColor=none;fillColor=none;align=left;verticalAlign=top;spacingLeft=4;spacingRight=4;overflow=hidden;rotatable=0;points=[[0,0.5],[1,0.5]];portConstraint=eastwest;whiteSpace=wrap;html=1;fontFamily=Helvetica;fontSize=11;fontColor=default;labelBackgroundColor=default;" vertex="1" parent="1ccCe6rOJYD6IKxsLuqJ-88">
          <mxGeometry y="130" width="160" height="26" as="geometry" />
        </mxCell>
        <mxCell id="1ccCe6rOJYD6IKxsLuqJ-96" value="+ options: PDO options" style="text;strokeColor=none;fillColor=none;align=left;verticalAlign=top;spacingLeft=4;spacingRight=4;overflow=hidden;rotatable=0;points=[[0,0.5],[1,0.5]];portConstraint=eastwest;whiteSpace=wrap;html=1;fontFamily=Helvetica;fontSize=11;fontColor=default;labelBackgroundColor=default;" vertex="1" parent="1ccCe6rOJYD6IKxsLuqJ-88">
          <mxGeometry y="156" width="160" height="26" as="geometry" />
        </mxCell>
        <mxCell id="1ccCe6rOJYD6IKxsLuqJ-90" value="" style="line;strokeWidth=1;fillColor=none;align=left;verticalAlign=middle;spacingTop=-1;spacingLeft=3;spacingRight=3;rotatable=0;labelPosition=right;points=[];portConstraint=eastwest;strokeColor=inherit;fontFamily=Helvetica;fontSize=11;fontColor=default;labelBackgroundColor=default;" vertex="1" parent="1ccCe6rOJYD6IKxsLuqJ-88">
          <mxGeometry y="182" width="160" height="8" as="geometry" />
        </mxCell>
        <mxCell id="1ccCe6rOJYD6IKxsLuqJ-97" value="+ getConn: MysqliConn" style="text;strokeColor=none;fillColor=none;align=left;verticalAlign=top;spacingLeft=4;spacingRight=4;overflow=hidden;rotatable=0;points=[[0,0.5],[1,0.5]];portConstraint=eastwest;whiteSpace=wrap;html=1;fontFamily=Helvetica;fontSize=11;fontColor=default;labelBackgroundColor=default;" vertex="1" parent="1ccCe6rOJYD6IKxsLuqJ-88">
          <mxGeometry y="190" width="160" height="26" as="geometry" />
        </mxCell>
        <mxCell id="1ccCe6rOJYD6IKxsLuqJ-91" value="+ getPDO(type): PDO" style="text;strokeColor=none;fillColor=none;align=left;verticalAlign=top;spacingLeft=4;spacingRight=4;overflow=hidden;rotatable=0;points=[[0,0.5],[1,0.5]];portConstraint=eastwest;whiteSpace=wrap;html=1;fontFamily=Helvetica;fontSize=11;fontColor=default;labelBackgroundColor=default;" vertex="1" parent="1ccCe6rOJYD6IKxsLuqJ-88">
          <mxGeometry y="216" width="160" height="26" as="geometry" />
        </mxCell>
        <mxCell id="1ccCe6rOJYD6IKxsLuqJ-126" style="edgeStyle=none;shape=connector;rounded=0;orthogonalLoop=1;jettySize=auto;html=1;strokeColor=default;align=center;verticalAlign=middle;fontFamily=Helvetica;fontSize=11;fontColor=default;labelBackgroundColor=default;endArrow=diamondThin;endFill=1;endSize=8;" edge="1" parent="1" source="1ccCe6rOJYD6IKxsLuqJ-111" target="1ccCe6rOJYD6IKxsLuqJ-75">
          <mxGeometry relative="1" as="geometry" />
        </mxCell>
        <mxCell id="1ccCe6rOJYD6IKxsLuqJ-128" style="edgeStyle=none;shape=connector;rounded=0;orthogonalLoop=1;jettySize=auto;html=1;strokeColor=default;align=center;verticalAlign=middle;fontFamily=Helvetica;fontSize=11;fontColor=default;labelBackgroundColor=default;endArrow=open;endFill=0;dashed=1;" edge="1" parent="1" source="1ccCe6rOJYD6IKxsLuqJ-111" target="1ccCe6rOJYD6IKxsLuqJ-88">
          <mxGeometry relative="1" as="geometry" />
        </mxCell>
        <mxCell id="1ccCe6rOJYD6IKxsLuqJ-111" value="Users_svc" style="swimlane;fontStyle=1;align=center;verticalAlign=top;childLayout=stackLayout;horizontal=1;startSize=26;horizontalStack=0;resizeParent=1;resizeParentMax=0;resizeLast=0;collapsible=1;marginBottom=0;whiteSpace=wrap;html=1;fontFamily=Helvetica;fontSize=11;fontColor=default;labelBackgroundColor=default;" vertex="1" parent="1">
          <mxGeometry x="130" y="-630" width="260" height="216" as="geometry" />
        </mxCell>
        <mxCell id="1ccCe6rOJYD6IKxsLuqJ-112" value="+ db: DB" style="text;strokeColor=none;fillColor=none;align=left;verticalAlign=top;spacingLeft=4;spacingRight=4;overflow=hidden;rotatable=0;points=[[0,0.5],[1,0.5]];portConstraint=eastwest;whiteSpace=wrap;html=1;fontFamily=Helvetica;fontSize=11;fontColor=default;labelBackgroundColor=default;" vertex="1" parent="1ccCe6rOJYD6IKxsLuqJ-111">
          <mxGeometry y="26" width="260" height="26" as="geometry" />
        </mxCell>
        <mxCell id="1ccCe6rOJYD6IKxsLuqJ-113" value="+ pdo: PDO" style="text;strokeColor=none;fillColor=none;align=left;verticalAlign=top;spacingLeft=4;spacingRight=4;overflow=hidden;rotatable=0;points=[[0,0.5],[1,0.5]];portConstraint=eastwest;whiteSpace=wrap;html=1;fontFamily=Helvetica;fontSize=11;fontColor=default;labelBackgroundColor=default;" vertex="1" parent="1ccCe6rOJYD6IKxsLuqJ-111">
          <mxGeometry y="52" width="260" height="26" as="geometry" />
        </mxCell>
        <mxCell id="1ccCe6rOJYD6IKxsLuqJ-114" value="" style="line;strokeWidth=1;fillColor=none;align=left;verticalAlign=middle;spacingTop=-1;spacingLeft=3;spacingRight=3;rotatable=0;labelPosition=right;points=[];portConstraint=eastwest;strokeColor=inherit;fontFamily=Helvetica;fontSize=11;fontColor=default;labelBackgroundColor=default;" vertex="1" parent="1ccCe6rOJYD6IKxsLuqJ-111">
          <mxGeometry y="78" width="260" height="8" as="geometry" />
        </mxCell>
        <mxCell id="1ccCe6rOJYD6IKxsLuqJ-117" value="+ registerAttendance(int, int): Void" style="text;strokeColor=none;fillColor=none;align=left;verticalAlign=top;spacingLeft=4;spacingRight=4;overflow=hidden;rotatable=0;points=[[0,0.5],[1,0.5]];portConstraint=eastwest;whiteSpace=wrap;html=1;fontFamily=Helvetica;fontSize=11;fontColor=default;labelBackgroundColor=default;" vertex="1" parent="1ccCe6rOJYD6IKxsLuqJ-111">
          <mxGeometry y="86" width="260" height="26" as="geometry" />
        </mxCell>
        <mxCell id="1ccCe6rOJYD6IKxsLuqJ-115" value="+ getAttendance(int): Void" style="text;strokeColor=none;fillColor=none;align=left;verticalAlign=top;spacingLeft=4;spacingRight=4;overflow=hidden;rotatable=0;points=[[0,0.5],[1,0.5]];portConstraint=eastwest;whiteSpace=wrap;html=1;fontFamily=Helvetica;fontSize=11;fontColor=default;labelBackgroundColor=default;" vertex="1" parent="1ccCe6rOJYD6IKxsLuqJ-111">
          <mxGeometry y="112" width="260" height="26" as="geometry" />
        </mxCell>
        <mxCell id="1ccCe6rOJYD6IKxsLuqJ-118" value="+ createUser(String, String, String, String): Void" style="text;strokeColor=none;fillColor=none;align=left;verticalAlign=top;spacingLeft=4;spacingRight=4;overflow=hidden;rotatable=0;points=[[0,0.5],[1,0.5]];portConstraint=eastwest;whiteSpace=wrap;html=1;fontFamily=Helvetica;fontSize=11;fontColor=default;labelBackgroundColor=default;" vertex="1" parent="1ccCe6rOJYD6IKxsLuqJ-111">
          <mxGeometry y="138" width="260" height="26" as="geometry" />
        </mxCell>
        <mxCell id="1ccCe6rOJYD6IKxsLuqJ-116" value="+ validateLogin(String, String): User" style="text;strokeColor=none;fillColor=none;align=left;verticalAlign=top;spacingLeft=4;spacingRight=4;overflow=hidden;rotatable=0;points=[[0,0.5],[1,0.5]];portConstraint=eastwest;whiteSpace=wrap;html=1;fontFamily=Helvetica;fontSize=11;fontColor=default;labelBackgroundColor=default;" vertex="1" parent="1ccCe6rOJYD6IKxsLuqJ-111">
          <mxGeometry y="164" width="260" height="26" as="geometry" />
        </mxCell>
        <mxCell id="1ccCe6rOJYD6IKxsLuqJ-119" value="+ becomePublisher(int): Boolean" style="text;strokeColor=none;fillColor=none;align=left;verticalAlign=top;spacingLeft=4;spacingRight=4;overflow=hidden;rotatable=0;points=[[0,0.5],[1,0.5]];portConstraint=eastwest;whiteSpace=wrap;html=1;fontFamily=Helvetica;fontSize=11;fontColor=default;labelBackgroundColor=default;" vertex="1" parent="1ccCe6rOJYD6IKxsLuqJ-111">
          <mxGeometry y="190" width="260" height="26" as="geometry" />
        </mxCell>
      </root>
    </mxGraphModel>
  </diagram>
</mxfile>
